<?xml version="1.0" encoding="UTF-8"?>
<svg version="1.1" xmlns="http://www.w3.org/2000/svg" width="456" height="512">
<path d="M0 0 C33.71660471 -0.04580221 67.43320167 -0.08103179 101.1498306 -0.10213066 C105.13260196 -0.104632 109.11537326 -0.10722065 113.09814453 -0.10986328 C113.89102496 -0.1103879 114.68390538 -0.11091252 115.50081249 -0.11145304 C128.33012139 -0.12014984 141.15941232 -0.13591582 153.98871057 -0.15430559 C167.15792225 -0.17302483 180.32712454 -0.184121 193.49634898 -0.18817699 C201.61899566 -0.19091785 209.74159155 -0.19956705 217.8642226 -0.21583293 C224.09820441 -0.22767895 230.33214769 -0.22890623 236.56613922 -0.22621536 C239.11945788 -0.22676504 241.67277848 -0.230736 244.22608566 -0.23841095 C247.71714936 -0.24838891 251.20799727 -0.24595832 254.69906616 -0.24050903 C256.20786191 -0.24924756 256.20786191 -0.24924756 257.74713838 -0.25816262 C264.06212118 -0.23159416 269.8581087 0.5604092 276 2 C277.45922053 2.3118436 278.91879565 2.62203834 280.37890625 2.9296875 C287.96414828 4.6165786 295.09247538 6.3394984 302 10 C303.46953125 10.72123047 303.46953125 10.72123047 304.96875 11.45703125 C313.4642119 15.77555772 320.64804998 20.99091602 328 27 C328.52561523 27.42482666 329.05123047 27.84965332 329.59277344 28.28735352 C332.41349187 30.59175632 335.01624471 32.91065845 337.375 35.6875 C338.12910156 36.55955078 338.12910156 36.55955078 338.8984375 37.44921875 C340 39 340 39 340 41 C340.99 41.33 341.98 41.66 343 42 C345.6286336 45.46797452 347.75291376 49.27652238 350 53 C350.87398438 54.33417969 350.87398438 54.33417969 351.765625 55.6953125 C370.85985809 85.88484319 374.11031953 128.83269793 366.6875 163.0625 C366.1563448 165.05030811 365.59192847 167.02943469 365 169 C364.8153418 169.63728027 364.63068359 170.27456055 364.44042969 170.93115234 C362.1389543 178.85246625 359.65454351 186.58536659 356 194 C355.57074219 194.93070313 355.14148438 195.86140625 354.69921875 196.8203125 C349.22408292 208.36089529 341.72824391 217.74806146 333 227 C332.41476562 227.63808594 331.82953125 228.27617187 331.2265625 228.93359375 C316.45249896 244.505318 294.75869959 253.4869799 274 257 C273.12973081 257.16465193 272.25946161 257.32930386 271.36282063 257.49894524 C262.02956431 259.13603033 252.89369657 259.27079581 243.4597168 259.22705078 C241.73368334 259.22648539 240.00764939 259.22680572 238.28161621 259.22793579 C233.63579692 259.22850531 228.99008269 259.21681655 224.34428763 259.20278788 C219.47430704 259.19021307 214.60432355 259.18910473 209.73432922 259.18673706 C200.53012925 259.18054201 191.32597726 259.16415815 182.12179834 259.14403808 C171.63560881 259.12161732 161.14941688 259.11067017 150.66320932 259.10064721 C129.10877951 259.07979 107.55439279 259.04465276 86 259 C85.97952606 260.02901428 85.95905212 261.05802856 85.93795776 262.1182251 C85.85873399 265.99082632 85.7687456 269.86311965 85.67575073 273.7354126 C85.63719697 275.40112016 85.60143804 277.06689514 85.56869507 278.73272705 C85.21340634 296.61536938 83.1789639 313.06386543 75 329.1875 C74.505 330.17105469 74.01 331.15460938 73.5 332.16796875 C70.65351001 337.54220116 70.65351001 337.54220116 69 340 C68.34 340 67.68 340 67 340 C66.731875 340.804375 66.46375 341.60875 66.1875 342.4375 C65.795625 343.283125 65.40375 344.12875 65 345 C64.01 345.33 63.02 345.66 62 346 C61.5978125 346.86625 61.5978125 346.86625 61.1875 347.75 C55.51060559 358.50622098 38.74658178 364.56711933 27.9296875 368.16796875 C21.80091729 369.90853949 16.00998296 370.15542093 9.6875 370.125 C8.45290039 370.13080078 8.45290039 370.13080078 7.19335938 370.13671875 C1.12671604 370.12671604 1.12671604 370.12671604 0 369 C-0.10279137 367.28538409 -0.13520902 365.56651753 -0.14044189 363.84883118 C-0.14615204 362.73177795 -0.15186218 361.61472473 -0.15774536 360.46382141 C-0.15886322 359.22706161 -0.15998108 357.99030182 -0.16113281 356.71606445 C-0.16609772 355.4216745 -0.17106262 354.12728455 -0.17617798 352.79367065 C-0.18933477 349.22885449 -0.19575521 345.66405719 -0.20018864 342.09922051 C-0.20311875 339.86804148 -0.2072238 337.63686759 -0.21169281 335.40569115 C-0.22538659 328.41430825 -0.23503967 321.42293713 -0.2388947 314.43154174 C-0.24335716 306.38329526 -0.26081215 298.33522017 -0.2898953 290.28702575 C-0.31161938 284.05668623 -0.32160493 277.82639448 -0.32293582 271.59601754 C-0.32397774 267.88097978 -0.32975138 264.1661027 -0.34775543 260.45110512 C-0.36752803 256.2893223 -0.36290486 252.12788935 -0.35644531 247.96606445 C-0.37026749 246.15039726 -0.37026749 246.15039726 -0.3843689 244.29804993 C-0.29604809 226.00142904 5.0248187 210.2375471 18 197 C25.50300601 191 25.50300601 191 29 191 C29 190.34 29 189.68 29 189 C33 187.66666667 37 186.33333333 41 185 C41.82673721 184.65489883 42.65347443 184.30979767 43.50526428 183.95423889 C48.39781868 182.61832509 53.07587988 182.68030399 58.12670898 182.66186523 C59.23800171 182.65032913 60.34929443 182.63879303 61.4942627 182.62690735 C65.16155415 182.59266389 68.82867774 182.57411447 72.49609375 182.55859375 C73.75059893 182.55169085 75.0051041 182.54478794 76.29762459 182.53767586 C82.24939707 182.5055597 88.20111717 182.48108405 94.15295929 182.468862 C101.00737692 182.45459946 107.86076628 182.41068404 114.71484321 182.34136051 C120.66606864 182.28325646 126.6170411 182.2637679 132.56855965 182.25798225 C135.09435458 182.25008544 137.62014134 182.23043053 140.14575005 182.19875908 C143.67928267 182.15735812 147.21020499 182.16013945 150.74389648 182.17358398 C151.78463821 182.15155914 152.82537994 182.1295343 153.8976593 182.10684204 C159.23723038 182.17582337 162.27656512 182.64116924 166.20350647 186.426651 C169 189.58491866 169 189.58491866 169 192 C169.5671875 192.2475 170.134375 192.495 170.71875 192.75 C174.21912089 194.66801145 176.87451276 197.41735435 179.78125 200.125 C181.80210453 201.8327644 183.58862556 202.94776388 186 204 C186 204.66 186 205.32 186 206 C186.9075 206.28875 187.815 206.5775 188.75 206.875 C191.32202908 207.76531776 193.61346766 208.71494413 196 210 C196 210.66 196 211.32 196 212 C199.3 212.99 202.6 213.98 206 215 C206 215.66 206 216.32 206 217 C209.63 217 213.26 217 217 217 C217 216.34 217 215.68 217 215 C219.6226232 213.66180502 222.24786599 212.3292849 224.875 211 C225.62136719 210.6184375 226.36773437 210.236875 227.13671875 209.84375 C227.85214844 209.4828125 228.56757813 209.121875 229.3046875 208.75 C229.96452637 208.41484375 230.62436523 208.0796875 231.30419922 207.734375 C233 207 233 207 235 207 C235 206.34 235 205.68 235 205 C236.546875 203.87890625 236.546875 203.87890625 238.75 202.5625 C251.37159023 194.39325026 266.15379573 180.53861282 271 166 C271.66 166 272.32 166 273 166 C273.17015625 165.46632812 273.3403125 164.93265625 273.515625 164.3828125 C274.84758558 160.28774221 276.2711712 156.28402675 277.9375 152.3125 C283.15264022 139.42450979 285.75958046 126.09644306 286.75390625 112.27734375 C287 110 287 110 288 107 C288.23420054 103.37953522 288.18979229 99.75226487 288.1875 96.125 C288.18814453 95.09028564 288.18878906 94.05557129 288.18945312 92.98950195 C288.13750697 85.44963582 287.45206699 78.40294868 286 71 C286 70.34 286 69.68 286 69 C284.50726563 69.05220703 284.50726563 69.05220703 282.984375 69.10546875 C274.66370801 69.30213906 266.61536331 68.90234655 258.375 67.6875 C257.54709961 67.56979248 256.71919922 67.45208496 255.86621094 67.33081055 C250.79692928 66.5265792 246.6423517 65.18331207 242 63 C240.35656792 62.34808049 238.71096414 61.70158843 237.0625 61.0625 C229.25634172 57.93533418 222.57935477 54.17740039 215.7109375 49.29296875 C212.25336449 47.64389575 210.63194612 47.89357933 207 49 C204.63270251 50.3866536 204.63270251 50.3866536 202.4375 52.1875 C193.84404673 58.48075074 184.23845663 62.28299856 174 65 C172.94102005 65.32039749 171.8820401 65.64079498 170.79096985 65.97090149 C157.22664645 69.65307929 143.05211705 69.31181904 129.11328125 69.30078125 C127.03736792 69.30467984 124.96145538 69.30901685 122.88554382 69.31376648 C118.56323645 69.32117364 114.24101087 69.32097627 109.91870117 69.31567383 C104.41170375 69.30986454 98.90504106 69.32687245 93.39809895 69.3500185 C89.12127261 69.36482283 84.84452588 69.36561883 80.56767845 69.36250877 C78.53813193 69.36301789 76.50858046 69.36817758 74.47905922 69.37832069 C51.77950307 69.47793966 34.49029018 65.19237311 17.6875 48.9375 C11 42.0660609 11 42.0660609 11 38 C10.34 38 9.68 38 9 38 C3.97670441 27.17439507 -0.10993613 17.83408355 -0.03515625 5.703125 C-0.03008057 4.63223633 -0.02500488 3.56134766 -0.01977539 2.45800781 C-0.01324951 1.64686523 -0.00672363 0.83572266 0 0 Z " fill="#0C36FA" transform="translate(50,71)"/>
<path d="M0 0 C2.6263491 1.17359634 5.10098926 2.38971881 7.625 3.75 C20.22317712 10.2657088 34.0512473 15.39926569 48.3125 16.5625 C52 17 52 17 53.71484375 18.15625 C56.55536605 22.23140661 55.20726514 28.24353086 55 33 C54.97099609 34.34384766 54.97099609 34.34384766 54.94140625 35.71484375 C54.02216678 54.6846038 48.39351211 72.59780111 39 88.9375 C38.58468018 89.66050293 38.16936035 90.38350586 37.74145508 91.12841797 C35.24316428 95.3271187 32.62747515 98.6651615 29 102 C28.278125 102.7425 27.55625 103.485 26.8125 104.25 C25.884375 105.1575 24.95625 106.065 24 107 C23.32453125 107.67160156 22.6490625 108.34320313 21.953125 109.03515625 C17.26345056 113.50260756 12.41189251 117.29274193 6.875 120.625 C5.75867188 121.29789062 4.64234375 121.97078125 3.4921875 122.6640625 C-0.81389413 124.31135547 -3.61974337 124.29344732 -8 123 C-20.65806321 116.78656715 -33.51206679 105.99651272 -41 94 C-41 93.34 -41 92.68 -41 92 C-41.66 92 -42.32 92 -43 92 C-55.74510109 67.06662263 -60.25328818 45.98249846 -60 18 C-58.92105469 17.85304687 -57.84210938 17.70609375 -56.73046875 17.5546875 C-38.78762602 14.94198617 -22.93435147 9.61483002 -7 1 C-4.35094274 -0.32452863 -2.970141 -0.30922016 0 0 Z " fill="#0C36FA" transform="translate(264,142)"/>
<path d="M0 0 C1.27119186 -0.00637985 2.54238373 -0.0127597 3.85209656 -0.01933289 C5.22537192 -0.02086103 6.59864781 -0.02197527 7.97192383 -0.02270508 C9.39105767 -0.02592123 10.81019118 -0.02928557 12.22932434 -0.03279114 C15.19390635 -0.03875985 18.15845929 -0.04063314 21.12304688 -0.04003906 C24.92285518 -0.03993705 28.72247827 -0.05363922 32.52224255 -0.07081127 C35.44843913 -0.08191793 38.37459054 -0.08395876 41.30080605 -0.08342934 C42.70224972 -0.08460954 44.10369455 -0.08903361 45.50511742 -0.0967617 C47.46041842 -0.10654298 49.4157741 -0.10242412 51.37109375 -0.09765625 C52.48328781 -0.09908127 53.59548187 -0.10050629 54.74137878 -0.10197449 C57.49145508 0.14526367 57.49145508 0.14526367 60.49145508 2.14526367 C60.90795898 4.34082031 60.90795898 4.34082031 60.96801758 7.05541992 C60.99895508 8.04606445 61.02989258 9.03670898 61.06176758 10.05737305 C61.07981445 11.09700195 61.09786133 12.13663086 61.11645508 13.20776367 C61.61352293 32.73010361 64.70709778 52.82397111 73.88989258 70.34838867 C74.65096636 72.62172596 74.13664832 73.87976225 73.49145508 76.14526367 C63.16437952 76.16845298 52.83731017 76.18621236 42.51021385 76.19707584 C37.7147263 76.20229025 32.91925658 76.20936171 28.1237793 76.22070312 C23.49427745 76.23158325 18.86479274 76.23755138 14.23527908 76.24014091 C12.47068639 76.24198592 10.70609462 76.24558874 8.94150925 76.25099373 C6.46643815 76.25827217 3.99143753 76.25925174 1.51635742 76.25878906 C0.78987 76.26238434 0.06338257 76.26597961 -0.68511963 76.26968384 C-4.82254235 76.26133671 -8.36737251 75.83545907 -12.50854492 75.14526367 C-12.50854492 50.72526367 -12.50854492 26.30526367 -12.50854492 1.14526367 C-8.07699457 0.40667195 -4.41931227 0.01511378 0 0 Z " fill="#0C36F9" transform="translate(123.508544921875,158.854736328125)"/>
<path d="M0 0 C13.56194726 3.68349185 25.25347585 12.29517748 36 21 C36.52851563 21.42627686 37.05703125 21.85255371 37.6015625 22.29174805 C40.41923317 24.59421498 43.0185957 26.91342616 45.375 29.6875 C46.12910156 30.55955078 46.12910156 30.55955078 46.8984375 31.44921875 C48 33 48 33 48 35 C48.99 35.33 49.98 35.66 51 36 C53.6286336 39.46797452 55.75291376 43.27652238 58 47 C58.87398438 48.33417969 58.87398438 48.33417969 59.765625 49.6953125 C78.85985809 79.88484319 82.11031953 122.83269793 74.6875 157.0625 C74.1563448 159.05030811 73.59192847 161.02943469 73 163 C72.8153418 163.63728027 72.63068359 164.27456055 72.44042969 164.93115234 C70.1389543 172.85246625 67.65454351 180.58536659 64 188 C63.57074219 188.93070313 63.14148438 189.86140625 62.69921875 190.8203125 C57.22408292 202.36089529 49.72824391 211.74806146 41 221 C40.41476562 221.63808594 39.82953125 222.27617187 39.2265625 222.93359375 C24.45249896 238.505318 2.75869959 247.4869799 -18 251 C-18.87026919 251.16465193 -19.74053839 251.32930386 -20.63717937 251.49894524 C-29.97043569 253.13603033 -39.10630343 253.27079581 -48.5402832 253.22705078 C-50.26631666 253.22648539 -51.99235061 253.22680572 -53.71838379 253.22793579 C-58.36420308 253.22850531 -63.00991731 253.21681655 -67.65571237 253.20278788 C-72.52569296 253.19021307 -77.39567645 253.18910473 -82.26567078 253.18673706 C-91.46987075 253.18054201 -100.67402274 253.16415815 -109.87820166 253.14403808 C-120.36439119 253.12161732 -130.85058312 253.11067017 -141.33679068 253.10064721 C-162.89122049 253.07979 -184.44560721 253.04465276 -206 253 C-206.02014664 254.02803238 -206.04029327 255.05606476 -206.06105042 256.11524963 C-206.13915021 259.98541638 -206.22842537 263.85526317 -206.32081604 267.72511292 C-206.35905038 269.38953695 -206.39438613 271.05403052 -206.42658997 272.71858215 C-206.70104523 286.74480155 -207.30087591 300.94057215 -213 314 C-213.66 314 -214.32 314 -215 314 C-215.33 314.66 -215.66 315.32 -216 316 C-215.731875 314.80375 -215.46375 313.6075 -215.1875 312.375 C-215.00646729 311.53654541 -214.82543457 310.69809082 -214.63891602 309.83422852 C-214.21207663 307.94077094 -213.74868949 306.05519353 -213.24975586 304.17944336 C-210.51957568 293.21541342 -210.47838616 282.42883025 -210.375 271.1875 C-210.33846159 268.29591747 -210.2979875 265.40446897 -210.25234985 262.51301575 C-210.22517341 260.72801194 -210.20380038 258.94290838 -210.18881226 257.15776062 C-210.1108158 251.1108158 -210.1108158 251.1108158 -209 250 C-206.71165008 249.89717641 -204.4200643 249.86643701 -202.12940979 249.86196899 C-201.40213257 249.85914771 -200.67485536 249.85632643 -199.92553943 249.85341966 C-197.46931065 249.84503503 -195.01312672 249.84373204 -192.55688477 249.84228516 C-190.80271273 249.83761919 -189.0485419 249.83247599 -187.29437256 249.82688904 C-183.50424373 249.81558181 -179.71412288 249.80715979 -175.92398262 249.80076981 C-169.91624651 249.79009502 -163.90856686 249.76984598 -157.90086365 249.74765015 C-140.81210961 249.68572646 -123.72335705 249.63188684 -106.63452148 249.59863281 C-97.20558969 249.58020376 -87.77675082 249.55115432 -78.34788746 249.5106281 C-73.36291415 249.48967527 -68.37805743 249.47411782 -63.3930378 249.47182083 C-58.68735541 249.46965047 -53.98191465 249.45354191 -49.27630615 249.42743111 C-47.56328101 249.4203232 -45.8502263 249.41809492 -44.13718987 249.42153358 C-23.16032924 249.45686527 -2.89597312 246.21757674 15.7421875 236.13671875 C18 235 18 235 20 235 C20 234.34 20 233.68 20 233 C21.98 232.34 23.96 231.68 26 231 C26 230.34 26 229.68 26 229 C26.66 229 27.32 229 28 229 C28 228.34 28 227.68 28 227 C28.86625 226.649375 29.7325 226.29875 30.625 225.9375 C34.76148878 223.56284904 37.05065583 220.66585151 40 217 C42.25 214.5625 42.25 214.5625 44 213 C44.66 213 45.32 213 46 213 C46.268125 212.05125 46.53625 211.1025 46.8125 210.125 C48 207 48 207 51 205 C51.72382467 202.94074861 51.72382467 202.94074861 52 201 C52.66 201 53.32 201 54 201 C54 200.34 54 199.68 54 199 C54.66 199 55.32 199 56 199 C55.938125 197.63875 55.938125 197.63875 55.875 196.25 C55.99531556 193.1217954 56.3914708 191.61385994 58 189 C58.66 189 59.32 189 60 189 C60 186.36 60 183.72 60 181 C60.66 181 61.32 181 62 181 C62 180.34 62 179.68 62 179 C62.66 179 63.32 179 64 179 C64 177.02 64 175.04 64 173 C64.66 173 65.32 173 66 173 C66 171.02 66 169.04 66 167 C66.66 167 67.32 167 68 167 C68 163.7 68 160.4 68 157 C68.66 157 69.32 157 70 157 C70 153.7 70 150.4 70 147 C70.66 147 71.32 147 72 147 C72 145.68 72 144.36 72 143 C72.66 143 73.32 143 74 143 C74 131.78 74 120.56 74 109 C73.34 109 72.68 109 72 109 C72 105.7 72 102.4 72 99 C71.34 99 70.68 99 70 99 C70 95.7 70 92.4 70 89 C69.34 89 68.68 89 68 89 C68 85.04 68 81.08 68 77 C67.34 77 66.68 77 66 77 C65.90203125 76.39414063 65.8040625 75.78828125 65.703125 75.1640625 C64.68228984 69.4438655 63.11597465 64.36239408 60.8046875 59.03125 C60 57 60 57 60 55 C59.34 55 58.68 55 58 55 C57.31640625 53.27473958 56.6328125 51.54947917 55.94921875 49.82421875 C55.0808519 47.93198184 55.0808519 47.93198184 53.515625 46.515625 C51.80361841 44.80361841 51.07803591 43.25263166 50.0625 41.0625 C47.62964971 36.51868423 44.49316501 33.10951817 40.875 29.5 C40.347854 28.97156494 39.82070801 28.44312988 39.27758789 27.89868164 C36.87621257 25.5645097 35.21662827 24.07220942 32 23 C29.8125 21.0625 29.8125 21.0625 28 19 C28 18.34 28 17.68 28 17 C26.02 16.34 24.04 15.68 22 15 C22 14.34 22 13.68 22 13 C20.68 13 19.36 13 18 13 C18 12.34 18 11.68 18 11 C16.68 11 15.36 11 14 11 C14 10.34 14 9.68 14 9 C13.30519531 8.72414063 12.61039063 8.44828125 11.89453125 8.1640625 C8.81490906 6.92556397 5.75049088 5.65405114 2.6875 4.375 C1.08455078 3.70597656 1.08455078 3.70597656 -0.55078125 3.0234375 C-1.35902344 2.68570313 -2.16726563 2.34796875 -3 2 C-2.01 1.34 -1.02 0.68 0 0 Z " fill="#0623BC" transform="translate(342,77)"/>
<path d="M0 0 C1.11129272 -0.0115361 2.22258545 -0.0230722 3.36755371 -0.03495789 C7.03484516 -0.06920135 10.70196876 -0.08775077 14.36938477 -0.10327148 C15.62388994 -0.11017439 16.87839512 -0.11707729 18.1709156 -0.12418938 C24.12268808 -0.15630554 30.07440818 -0.18078119 36.0262503 -0.19300324 C42.88066793 -0.20726577 49.7340573 -0.25118119 56.58813423 -0.32050472 C62.53935965 -0.37860878 68.49033212 -0.39809733 74.44185066 -0.40388298 C76.9676456 -0.4117798 79.49343236 -0.4314347 82.01904106 -0.46310616 C85.55257369 -0.50450711 89.083496 -0.50172579 92.6171875 -0.48828125 C93.65792923 -0.51030609 94.69867096 -0.53233093 95.77095032 -0.55502319 C101.1105214 -0.48604187 104.14985614 -0.02069599 108.07679749 3.76478577 C110.87329102 6.92305343 110.87329102 6.92305343 110.87329102 9.33813477 C111.44047852 9.58563477 112.00766602 9.83313477 112.59204102 10.08813477 C116.09241191 12.00614621 118.74780378 14.75548912 121.65454102 17.46313477 C123.67539555 19.17089916 125.46191657 20.28589865 127.87329102 21.33813477 C127.87329102 21.99813477 127.87329102 22.65813477 127.87329102 23.33813477 C129.23454102 23.77125977 129.23454102 23.77125977 130.62329102 24.21313477 C133.19532009 25.10345252 135.48675868 26.05307889 137.87329102 27.33813477 C137.87329102 27.99813477 137.87329102 28.65813477 137.87329102 29.33813477 C138.53329102 29.33813477 139.19329102 29.33813477 139.87329102 29.33813477 C139.87329102 29.99813477 139.87329102 30.65813477 139.87329102 31.33813477 C140.53329102 31.66813477 141.19329102 31.99813477 141.87329102 32.33813477 C140.55329102 32.33813477 139.23329102 32.33813477 137.87329102 32.33813477 C137.87329102 31.67813477 137.87329102 31.01813477 137.87329102 30.33813477 C136.99801758 30.09063477 136.12274414 29.84313477 135.22094727 29.58813477 C131.6823688 28.26684526 129.28818391 26.64212016 126.31079102 24.33813477 C122.91479848 21.71768095 119.93649207 19.74886641 115.87329102 18.33813477 C115.87329102 17.67813477 115.87329102 17.01813477 115.87329102 16.33813477 C115.21329102 16.33813477 114.55329102 16.33813477 113.87329102 16.33813477 C113.87329102 15.67813477 113.87329102 15.01813477 113.87329102 14.33813477 C113.21329102 14.33813477 112.55329102 14.33813477 111.87329102 14.33813477 C111.87329102 13.67813477 111.87329102 13.01813477 111.87329102 12.33813477 C111.21329102 12.33813477 110.55329102 12.33813477 109.87329102 12.33813477 C109.87329102 11.67813477 109.87329102 11.01813477 109.87329102 10.33813477 C108.55329102 10.33813477 107.23329102 10.33813477 105.87329102 10.33813477 C105.87329102 9.67813477 105.87329102 9.01813477 105.87329102 8.33813477 C104.88329102 8.33813477 103.89329102 8.33813477 102.87329102 8.33813477 C102.54329102 7.01813477 102.21329102 5.69813477 101.87329102 4.33813477 C86.67784291 4.37540068 71.48260027 4.43540657 56.28735638 4.52203751 C49.23095537 4.56174469 42.17466454 4.59417917 35.11816406 4.60913086 C28.30341306 4.62359118 21.48901617 4.65879728 14.6744175 4.70644379 C12.07945545 4.72123763 9.48444462 4.72917463 6.88944054 4.73001862 C3.24396055 4.73239589 -0.40058113 4.7595394 -4.04589844 4.79223633 C-5.10973755 4.78720596 -6.17357666 4.7821756 -7.26965332 4.7769928 C-14.59484073 4.87809876 -20.39687359 6.51700862 -27.12670898 9.33813477 C-28.11670898 9.66813477 -29.10670898 9.99813477 -30.12670898 10.33813477 C-30.12670898 10.99813477 -30.12670898 11.65813477 -30.12670898 12.33813477 C-31.44670898 12.33813477 -32.76670898 12.33813477 -34.12670898 12.33813477 C-34.12670898 12.99813477 -34.12670898 13.65813477 -34.12670898 14.33813477 C-35.70092773 15.81860352 -35.70092773 15.81860352 -37.81420898 17.52563477 C-42.68020554 21.66690843 -46.79187149 25.88876205 -48.12670898 32.33813477 C-48.78670898 32.33813477 -49.44670898 32.33813477 -50.12670898 32.33813477 C-50.96156311 35.28758652 -51.29359774 38.00852779 -51.40795898 41.06860352 C-51.4453418 41.95354492 -51.48272461 42.83848633 -51.52124023 43.75024414 C-51.59199742 45.61220646 -51.66230437 47.47418594 -51.73217773 49.33618164 C-51.76956055 50.21725586 -51.80694336 51.09833008 -51.84545898 52.00610352 C-51.87575195 52.81329834 -51.90604492 53.62049316 -51.93725586 54.45214844 C-52.12670898 56.33813477 -52.12670898 56.33813477 -53.12670898 57.33813477 C-53.22273921 58.95769816 -53.24858753 60.58146559 -53.2469635 62.20387268 C-53.24833817 63.2570166 -53.24971283 64.31016052 -53.25112915 65.3952179 C-53.24753387 66.56046494 -53.2439386 67.72571198 -53.24023438 68.92626953 C-53.2403804 70.14561188 -53.24052643 71.36495422 -53.24067688 72.62124634 C-53.24009791 75.97440988 -53.23506867 79.32751251 -53.22810292 82.68066525 C-53.22186881 86.18139038 -53.22126554 89.68211625 -53.22007751 93.18284607 C-53.21696437 99.81623132 -53.2087512 106.44960017 -53.19872802 113.08297819 C-53.18756637 120.63303684 -53.18205631 128.18309625 -53.17703259 135.73316109 C-53.16656857 151.26816209 -53.14876898 166.80314567 -53.12670898 182.33813477 C-48.83670898 182.33813477 -44.54670898 182.33813477 -40.12670898 182.33813477 C-40.12670898 181.67813477 -40.12670898 181.01813477 -40.12670898 180.33813477 C-36.82670898 180.33813477 -33.52670898 180.33813477 -30.12670898 180.33813477 C-30.12670898 179.67813477 -30.12670898 179.01813477 -30.12670898 178.33813477 C-26.16670898 178.33813477 -22.20670898 178.33813477 -18.12670898 178.33813477 C-18.12670898 177.67813477 -18.12670898 177.01813477 -18.12670898 176.33813477 C-16.80670898 176.33813477 -15.48670898 176.33813477 -14.12670898 176.33813477 C-14.12670898 175.67813477 -14.12670898 175.01813477 -14.12670898 174.33813477 C-13.13670898 174.33813477 -12.14670898 174.33813477 -11.12670898 174.33813477 C-11.12670898 173.67813477 -11.12670898 173.01813477 -11.12670898 172.33813477 C-10.13670898 172.33813477 -9.14670898 172.33813477 -8.12670898 172.33813477 C-8.12670898 171.67813477 -8.12670898 171.01813477 -8.12670898 170.33813477 C-6.46004232 169.33813477 -4.79337565 168.33813477 -3.12670898 167.33813477 C-1.79639648 166.00782227 -1.79639648 166.00782227 -0.43920898 164.65063477 C0.70547852 163.50594727 0.70547852 163.50594727 1.87329102 162.33813477 C2.53329102 162.33813477 3.19329102 162.33813477 3.87329102 162.33813477 C4.14141602 161.76063477 4.40954102 161.18313477 4.68579102 160.58813477 C5.87329102 158.33813477 5.87329102 158.33813477 7.43579102 156.33813477 C8.90523087 154.2936967 9.43493749 152.79291448 9.87329102 150.33813477 C10.53329102 150.33813477 11.19329102 150.33813477 11.87329102 150.33813477 C11.87329102 149.67813477 11.87329102 149.01813477 11.87329102 148.33813477 C12.53329102 148.33813477 13.19329102 148.33813477 13.87329102 148.33813477 C14.86329102 145.36813477 14.86329102 145.36813477 15.87329102 142.33813477 C16.20329102 142.33813477 16.53329102 142.33813477 16.87329102 142.33813477 C16.50163534 148.28462556 14.72670498 152.71643889 10.87329102 157.33813477 C10.21329102 157.33813477 9.55329102 157.33813477 8.87329102 157.33813477 C8.60516602 158.14250977 8.33704102 158.94688477 8.06079102 159.77563477 C7.66891602 160.62125977 7.27704102 161.46688477 6.87329102 162.33813477 C5.88329102 162.66813477 4.89329102 162.99813477 3.87329102 163.33813477 C3.60516602 163.91563477 3.33704102 164.49313477 3.06079102 165.08813477 C-2.61610339 175.84435575 -19.3801272 181.90525409 -30.19702148 185.50610352 C-36.32579169 187.24667425 -42.11672603 187.49355569 -48.43920898 187.46313477 C-49.26227539 187.46700195 -50.0853418 187.47086914 -50.93334961 187.47485352 C-56.99999294 187.46485081 -56.99999294 187.46485081 -58.12670898 186.33813477 C-58.22950036 184.62351885 -58.26191801 182.9046523 -58.26715088 181.18696594 C-58.27286102 180.06991272 -58.27857117 178.9528595 -58.28445435 177.80195618 C-58.2855722 176.56519638 -58.28669006 175.32843658 -58.2878418 174.05419922 C-58.2928067 172.75980927 -58.29777161 171.46541931 -58.30288696 170.13180542 C-58.31604375 166.56698925 -58.3224642 163.00219195 -58.32689762 159.43735528 C-58.32982773 157.20617624 -58.33393279 154.97500236 -58.33840179 152.74382591 C-58.35209557 145.75244301 -58.36174866 138.76107189 -58.36560369 131.76967651 C-58.37006615 123.72143002 -58.38752114 115.67335493 -58.41660428 107.62516052 C-58.43832836 101.39482099 -58.44831392 95.16452925 -58.4496448 88.93415231 C-58.45068673 85.21911455 -58.45646037 81.50423746 -58.47446442 77.78923988 C-58.49423702 73.62745707 -58.48961384 69.46602411 -58.4831543 65.30419922 C-58.49697647 63.48853203 -58.49697647 63.48853203 -58.51107788 61.63618469 C-58.42275708 43.33956381 -53.10189029 27.57568186 -40.12670898 14.33813477 C-32.62370297 8.33813477 -32.62370297 8.33813477 -29.12670898 8.33813477 C-29.12670898 7.67813477 -29.12670898 7.01813477 -29.12670898 6.33813477 C-25.12670898 5.00480143 -21.12670898 3.6714681 -17.12670898 2.33813477 C-16.29997177 1.9930336 -15.47323456 1.64793243 -14.6214447 1.29237366 C-9.72889031 -0.04354015 -5.05082911 0.01843876 0 0 Z " fill="#0E34DC" transform="translate(108.126708984375,253.661865234375)"/>
<path d="M0 0 C33.71660471 -0.04580221 67.43320167 -0.08103179 101.1498306 -0.10213066 C105.13260196 -0.104632 109.11537326 -0.10722065 113.09814453 -0.10986328 C113.89102496 -0.1103879 114.68390538 -0.11091252 115.50081249 -0.11145304 C128.33012139 -0.12014984 141.15941232 -0.13591582 153.98871057 -0.15430559 C167.15792225 -0.17302483 180.32712454 -0.184121 193.49634898 -0.18817699 C201.61899566 -0.19091785 209.74159155 -0.19956705 217.8642226 -0.21583293 C224.09820441 -0.22767895 230.33214769 -0.22890623 236.56613922 -0.22621536 C239.11945788 -0.22676504 241.67277848 -0.230736 244.22608566 -0.23841095 C247.71714936 -0.24838891 251.20799727 -0.24595832 254.69906616 -0.24050903 C256.20786191 -0.24924756 256.20786191 -0.24924756 257.74713838 -0.25816262 C264.05798513 -0.23161157 269.86240295 0.55012435 276 2 C276.97195313 2.20882812 277.94390625 2.41765625 278.9453125 2.6328125 C280.96354167 3.08854167 282.98177083 3.54427083 285 4 C285 4.66 285 5.32 285 6 C285.99 6.33 286.98 6.66 288 7 C286.54107996 6.88204476 285.08288823 6.75508849 283.625 6.625 C282.81289063 6.55539063 282.00078125 6.48578125 281.1640625 6.4140625 C278.53786476 6.07038724 276.08131599 5.57319192 273.50380898 4.99152565 C267.8927101 3.86354485 262.48393145 3.71046059 256.7749939 3.7215271 C255.68839182 3.7157347 254.60178975 3.7099423 253.48226035 3.70397437 C249.86493328 3.68705728 246.24773443 3.68410499 242.63037109 3.68115234 C240.02794078 3.67184846 237.42551343 3.6616791 234.8230896 3.65071106 C229.23239045 3.62850863 223.6417094 3.61345332 218.0509758 3.60334396 C209.96786265 3.58871733 201.88481255 3.5631695 193.80173655 3.53501268 C180.68538669 3.48961684 167.56902771 3.45297234 154.45263672 3.421875 C141.71629233 3.39165987 128.97997019 3.35729603 116.24365234 3.31738281 C115.45771275 3.31492126 114.67177315 3.31245972 113.8620172 3.30992357 C109.91892852 3.2975484 105.9758401 3.28509197 102.0327518 3.27259517 C69.35519808 3.16913537 36.67761996 3.07989661 4 3 C4.14104691 5.91697011 4.28764814 8.8334802 4.4375 11.75 C4.47681641 12.575 4.51613281 13.4 4.55664062 14.25 C4.59853516 15.04921875 4.64042969 15.8484375 4.68359375 16.671875 C4.72025146 17.4050293 4.75690918 18.13818359 4.79467773 18.89355469 C5.00114785 21.01177605 5.43132086 22.9519456 6 25 C6.66 25 7.32 25 8 25 C8.68359375 27.97851562 8.68359375 27.97851562 9.3671875 30.95703125 C9.98007723 33.27742974 9.98007723 33.27742974 12 36 C14.05925139 36.72382467 14.05925139 36.72382467 16 37 C16 38.98 16 40.96 16 43 C16.66 43 17.32 43 18 43 C18.433125 43.763125 18.86625 44.52625 19.3125 45.3125 C21.20749829 48.33046024 22.95374309 49.27104338 26 51 C26 51.66 26 52.32 26 53 C27.32 53 28.64 53 30 53 C30.33 53.99 30.66 54.98 31 56 C47.20515058 66.10191205 63.52993401 66.15978107 81.96875 66.16796875 C83.69730658 66.17119302 85.4258629 66.1745579 87.15441895 66.17805481 C90.76506175 66.18400975 94.37568076 66.18589861 97.98632812 66.18530273 C102.55328488 66.18520162 107.12008438 66.1988174 111.68700409 66.21607494 C115.25639509 66.22734232 118.82574992 66.22921745 122.39515686 66.22869301 C124.07561278 66.2298525 125.75607029 66.23415581 127.43650818 66.24202538 C139.74152769 66.29423616 151.77954672 65.40820038 164 64 C165.69519067 63.81076972 167.39046008 63.62224321 169.08581543 63.43449402 C170.37749634 63.29111099 171.66917725 63.14772797 173 63 C171 66 171 66 169.22265625 66.6953125 C156.08677726 69.30823599 142.93821073 69.17811543 129.6015625 69.203125 C128.57978283 69.20595238 127.55800316 69.20877975 126.50526047 69.21169281 C121.10213723 69.22661093 115.6990402 69.23588805 110.29589844 69.24023438 C104.74954487 69.24572088 99.20343651 69.2697742 93.65715981 69.29820633 C89.35888994 69.31692512 85.06067823 69.32204312 80.76237106 69.32357025 C78.71886219 69.32657436 76.67535379 69.33452594 74.63188553 69.34775543 C51.85980232 69.48471561 34.54946396 65.24961731 17.6875 48.9375 C11 42.0660609 11 42.0660609 11 38 C10.34 38 9.68 38 9 38 C3.97670441 27.17439507 -0.10993613 17.83408355 -0.03515625 5.703125 C-0.03008057 4.63223633 -0.02500488 3.56134766 -0.01977539 2.45800781 C-0.01324951 1.64686523 -0.00672363 0.83572266 0 0 Z " fill="#0F2EC5" transform="translate(50,71)"/>
<path d="M0 0 C2.79219866 1.09495081 5.41428616 2.47200495 8.0625 3.875 C8.76955078 4.23980469 9.47660156 4.60460937 10.20507812 4.98046875 C11.52459871 5.6619113 12.84201161 6.34746338 14.15649414 7.03857422 C16.09329465 8.04865506 18.04385017 9.02800344 20 10 C20 10.66 20 11.32 20 12 C20.99 12.495 20.99 12.495 22 13 C17.23649415 12.28547412 12.65798604 11.20465156 8 10 C8 9.34 8 8.68 8 8 C7.34 8 6.68 8 6 8 C6 7.34 6 6.68 6 6 C-0.91372212 3.31729929 -0.91372212 3.31729929 -8 4 C-8 4.66 -8 5.32 -8 6 C-8.66 6 -9.32 6 -10 6 C-10 6.66 -10 7.32 -10 8 C-11.32 8 -12.64 8 -14 8 C-14 8.66 -14 9.32 -14 10 C-14.66 10 -15.32 10 -16 10 C-16 10.66 -16 11.32 -16 12 C-18.64 12 -21.28 12 -24 12 C-24 12.66 -24 13.32 -24 14 C-25.98 14 -27.96 14 -30 14 C-30 14.66 -30 15.32 -30 16 C-31.98 16 -33.96 16 -36 16 C-36 16.66 -36 17.32 -36 18 C-36.66 18 -37.32 18 -38 18 C-38 18.66 -38 19.32 -38 20 C-43.94 20 -49.88 20 -56 20 C-55.77286807 43.19002806 -55.77286807 43.19002806 -52 66 C-51.34 66 -50.68 66 -50 66 C-49.34 69.3 -48.68 72.6 -48 76 C-47.34 76 -46.68 76 -46 76 C-46 77.98 -46 79.96 -46 82 C-45.34 82 -44.68 82 -44 82 C-43.72027344 82.6290625 -43.44054687 83.258125 -43.15234375 83.90625 C-40.52156854 89.52308196 -37.65700325 93.93045291 -33.35546875 98.40625 C-32 100 -32 100 -32 102 C-31.34 102 -30.68 102 -30 102 C-30 102.66 -30 103.32 -30 104 C-29.34 104 -28.68 104 -28 104 C-28 104.66 -28 105.32 -28 106 C-27.34 106 -26.68 106 -26 106 C-26 106.66 -26 107.32 -26 108 C-25.113125 108.226875 -24.22625 108.45375 -23.3125 108.6875 C-19.52100197 110.18979167 -17.85909064 112.14090936 -15 115 C-12.70722059 116.21833885 -10.44186508 117.09028556 -8 118 C-8 118.66 -8 119.32 -8 120 C-4.41384447 120.97125046 -2.24598277 121.55034575 1.2109375 120.0234375 C5.26545147 117.6513828 5.26545147 117.6513828 8 114 C9.32 114 10.64 114 12 114 C12 112.68 12 111.36 12 110 C13.423125 109.814375 13.423125 109.814375 14.875 109.625 C24.08810389 106.97669888 31.4017764 95.92797173 36 88 C37.51364058 84.721194 38.82993577 81.41571545 40 78 C40.66 78 41.32 78 42 78 C42 76.02 42 74.04 42 72 C42.66 72 43.32 72 44 72 C44 70.02 44 68.04 44 66 C44.66 66 45.32 66 46 66 C49.13000896 50.70988346 50.99114713 35.57160297 52 20 C51.18885742 19.94013916 50.37771484 19.88027832 49.54199219 19.81860352 C47.93565918 19.69376587 47.93565918 19.69376587 46.296875 19.56640625 C45.23823242 19.48592041 44.17958984 19.40543457 43.08886719 19.32250977 C39.23073099 18.91968034 35.72185969 18.07361337 32 17 C35.87363652 14.29957976 39.64172611 15.07869856 44.0625 15.6875 C44.78244141 15.76677734 45.50238281 15.84605469 46.24414062 15.92773438 C49.10035516 16.29636373 51.50330204 16.69629908 53.98046875 18.2109375 C56.40848329 22.47159136 55.20636879 28.2641008 55 33 C54.97099609 34.34384766 54.97099609 34.34384766 54.94140625 35.71484375 C54.02216678 54.6846038 48.39351211 72.59780111 39 88.9375 C38.58468018 89.66050293 38.16936035 90.38350586 37.74145508 91.12841797 C35.24316428 95.3271187 32.62747515 98.6651615 29 102 C28.278125 102.7425 27.55625 103.485 26.8125 104.25 C25.884375 105.1575 24.95625 106.065 24 107 C23.32453125 107.67160156 22.6490625 108.34320313 21.953125 109.03515625 C17.26345056 113.50260756 12.41189251 117.29274193 6.875 120.625 C5.75867188 121.29789062 4.64234375 121.97078125 3.4921875 122.6640625 C-0.81389413 124.31135547 -3.61974337 124.29344732 -8 123 C-20.65806321 116.78656715 -33.51206679 105.99651272 -41 94 C-41 93.34 -41 92.68 -41 92 C-41.66 92 -42.32 92 -43 92 C-55.74510109 67.06662263 -60.25328818 45.98249846 -60 18 C-58.92105469 17.85304687 -57.84210938 17.70609375 -56.73046875 17.5546875 C-38.78762602 14.94198617 -22.93435147 9.61483002 -7 1 C-4.33807219 -0.3309639 -2.98905967 -0.31634553 0 0 Z " fill="#0623BD" transform="translate(264,142)"/>
<path d="M0 0 C1.27119186 -0.00637985 2.54238373 -0.0127597 3.85209656 -0.01933289 C5.22537192 -0.02086103 6.59864781 -0.02197527 7.97192383 -0.02270508 C9.39105767 -0.02592123 10.81019118 -0.02928557 12.22932434 -0.03279114 C15.19390635 -0.03875985 18.15845929 -0.04063314 21.12304688 -0.04003906 C24.92285518 -0.03993705 28.72247827 -0.05363922 32.52224255 -0.07081127 C35.44843913 -0.08191793 38.37459054 -0.08395876 41.30080605 -0.08342934 C42.70224972 -0.08460954 44.10369455 -0.08903361 45.50511742 -0.0967617 C47.46041842 -0.10654298 49.4157741 -0.10242412 51.37109375 -0.09765625 C52.48328781 -0.09908127 53.59548187 -0.10050629 54.74137878 -0.10197449 C57.49145508 0.14526367 57.49145508 0.14526367 60.49145508 2.14526367 C60.90795898 4.34082031 60.90795898 4.34082031 60.96801758 7.05541992 C60.99895508 8.04606445 61.02989258 9.03670898 61.06176758 10.05737305 C61.07981445 11.09700195 61.09786133 12.13663086 61.11645508 13.20776367 C61.61352293 32.73010361 64.70709778 52.82397111 73.88989258 70.34838867 C74.65096636 72.62172596 74.13664832 73.87976225 73.49145508 76.14526367 C63.16437952 76.16845298 52.83731017 76.18621236 42.51021385 76.19707584 C37.7147263 76.20229025 32.91925658 76.20936171 28.1237793 76.22070312 C23.49427745 76.23158325 18.86479274 76.23755138 14.23527908 76.24014091 C12.47068639 76.24198592 10.70609462 76.24558874 8.94150925 76.25099373 C6.46643815 76.25827217 3.99143753 76.25925174 1.51635742 76.25878906 C0.78987 76.26238434 0.06338257 76.26597961 -0.68511963 76.26968384 C-4.82254235 76.26133671 -8.36737251 75.83545907 -12.50854492 75.14526367 C-12.50854492 50.72526367 -12.50854492 26.30526367 -12.50854492 1.14526367 C-8.07699457 0.40667195 -4.41931227 0.01511378 0 0 Z M-9.50854492 3.14526367 C-9.50854492 26.24526367 -9.50854492 49.34526367 -9.50854492 73.14526367 C16.89145508 73.14526367 43.29145508 73.14526367 70.49145508 73.14526367 C69.721845 68.52760322 68.91173638 65.37382392 67.24145508 61.14526367 C60.39191921 42.12539305 58.95046898 23.57145829 57.49145508 3.14526367 C35.38145508 3.14526367 13.27145508 3.14526367 -9.50854492 3.14526367 Z " fill="#0421CA" transform="translate(123.508544921875,158.854736328125)"/>
<path d="M0 0 C0 0.33 0 0.66 0 1 C-4.455 1.495 -4.455 1.495 -9 2 C-9 2.66 -9 3.32 -9 4 C-19.22424322 5.97184457 -29.18020847 6.27509008 -39.5402832 6.22705078 C-41.26631666 6.22648539 -42.99235061 6.22680572 -44.71838379 6.22793579 C-49.36420308 6.22850531 -54.00991731 6.21681655 -58.65571237 6.20278788 C-63.52569296 6.19021307 -68.39567645 6.18910473 -73.26567078 6.18673706 C-82.46987075 6.18054201 -91.67402274 6.16415815 -100.87820166 6.14403808 C-111.36439119 6.12161732 -121.85058312 6.11067017 -132.33679068 6.10064721 C-153.89122049 6.07979 -175.44560721 6.04465276 -197 6 C-197.02014664 7.02803238 -197.04029327 8.05606476 -197.06105042 9.11524963 C-197.13915021 12.98541638 -197.22842537 16.85526317 -197.32081604 20.72511292 C-197.35905038 22.38953695 -197.39438613 24.05403052 -197.42658997 25.71858215 C-197.70104523 39.74480155 -198.30087591 53.94057215 -204 67 C-204.66 67 -205.32 67 -206 67 C-206.495 67.99 -206.495 67.99 -207 69 C-206.731875 67.80375 -206.46375 66.6075 -206.1875 65.375 C-206.00646729 64.53654541 -205.82543457 63.69809082 -205.63891602 62.83422852 C-205.21207663 60.94077094 -204.74868949 59.05519353 -204.24975586 57.17944336 C-201.51957568 46.21541342 -201.47838616 35.42883025 -201.375 24.1875 C-201.33846159 21.29591747 -201.2979875 18.40446897 -201.25234985 15.51301575 C-201.22517341 13.72801194 -201.20380038 11.94290838 -201.18881226 10.15776062 C-201.1108158 4.1108158 -201.1108158 4.1108158 -200 3 C-197.70047983 2.89496513 -195.39767205 2.8619779 -193.09576416 2.85523987 C-192.36495911 2.85171302 -191.63415407 2.84818618 -190.88120341 2.84455246 C-188.41330905 2.83381229 -185.94545322 2.83017515 -183.47753906 2.82641602 C-181.71525406 2.8201143 -179.95297066 2.81334893 -178.19068909 2.80615234 C-174.38418154 2.7914482 -170.57768028 2.77973686 -166.77115631 2.77020454 C-160.74379079 2.75477285 -154.71647813 2.73081949 -148.68914795 2.70530701 C-131.54524075 2.63406321 -114.40130223 2.57449586 -97.25732422 2.52319336 C-87.79732923 2.49480896 -78.3373858 2.45937594 -68.87744498 2.41653961 C-62.89573595 2.38987694 -56.9140853 2.3719034 -50.9323287 2.36050236 C-47.19177119 2.35131733 -43.45128379 2.3339268 -39.71076775 2.31432343 C-37.98757732 2.30690589 -36.26436882 2.3027704 -34.54116249 2.30232811 C-25.79461591 2.2982738 -17.42684394 2.04806678 -8.79423141 0.42684841 C-5.82340808 -0.02697628 -3.00064486 -0.06966856 0 0 Z " fill="#051EBF" transform="translate(333,324)"/>
<path d="M0 0 C2.97 0 5.94 0 9 0 C5.42690902 2.38206065 2.13513932 2.91957453 -2.01559448 3.59797668 C-3.2157958 3.79422173 -3.2157958 3.79422173 -4.4402436 3.99443132 C-13.21383917 5.32555157 -21.89404428 5.44156769 -30.75048828 5.43237305 C-32.54623068 5.44141875 -34.34196698 5.45175269 -36.13769531 5.46325684 C-40.95054242 5.49052373 -45.76327146 5.50006949 -50.5761857 5.50611091 C-55.62903307 5.51557463 -60.68179492 5.5417836 -65.73458862 5.56611633 C-75.27503355 5.6095671 -84.81546169 5.63824501 -94.35597503 5.66143972 C-105.2292705 5.6886071 -116.10247902 5.73251088 -126.97571206 5.77772844 C-149.31709441 5.87026742 -171.65850279 5.94208797 -194 6 C-194 5.34 -194 4.68 -194 4 C-192.35 3.67 -190.7 3.34 -189 3 C-189 2.67 -189 2.34 -189 2 C-126.63 2 -64.26 2 0 2 C0 1.34 0 0.68 0 0 Z " fill="#0D35ED" transform="translate(326,322)"/>
<path d="M0 0 C0 0.66 0 1.32 0 2 C1.32 2 2.64 2 4 2 C4 2.66 4 3.32 4 4 C5.32 4 6.64 4 8 4 C8.495 5.485 8.495 5.485 9 7 C12.91031269 9.64951093 17.30943359 11.4136792 22 12 C22 12.66 22 13.32 22 14 C30.66891797 16.52446512 38.98741574 17.61336547 48 18 C48 18.66 48 19.32 48 20 C51.96 20 55.92 20 60 20 C60 20.33 60 20.66 60 21 C61.26457031 21.07347656 61.26457031 21.07347656 62.5546875 21.1484375 C63.65039062 21.22320312 64.74609375 21.29796875 65.875 21.375 C66.96554687 21.44460937 68.05609375 21.51421875 69.1796875 21.5859375 C72 22 72 22 74 24 C75.45608772 32.33736042 75.15853122 41.06366328 75.125 49.5 C75.12101196 51.31528198 75.12101196 51.31528198 75.11694336 53.16723633 C75.0777314 60.68153902 74.92197489 68.18155336 74.5625 75.6875 C74.52334473 76.52410156 74.48418945 77.36070312 74.44384766 78.22265625 C74.12940391 83.87059609 74.12940391 83.87059609 73 85 C72.63239269 87.32817964 72.29758419 89.6618385 72 92 C71.34 92 70.68 92 70 92 C69.01 93.98 69.01 93.98 68 96 C66.68751573 92.0625472 67.58863841 88.9575903 68.375 85 C69.5036721 79.03488562 70.39460236 73.16873518 70.7890625 67.1015625 C71 65 71 65 72 62 C72.23420054 58.37953522 72.18979229 54.75226487 72.1875 51.125 C72.1884668 49.57292847 72.1884668 49.57292847 72.18945312 47.98950195 C72.13750697 40.44963582 71.45206699 33.40294868 70 26 C70 25.34 70 24.68 70 24 C68.50726563 24.05220703 68.50726563 24.05220703 66.984375 24.10546875 C58.66370801 24.30213906 50.61536331 23.90234655 42.375 22.6875 C41.54709961 22.56979248 40.71919922 22.45208496 39.86621094 22.33081055 C34.79692928 21.5265792 30.6423517 20.18331207 26 18 C24.35656792 17.34808049 22.71096414 16.70158843 21.0625 16.0625 C13.25634172 12.93533418 6.57935477 9.17740039 -0.2890625 4.29296875 C-3.74663551 2.64389575 -5.36805388 2.89357933 -9 4 C-11.36729749 5.3866536 -11.36729749 5.3866536 -13.5625 7.1875 C-22.0141515 13.41706075 -31.41981709 18.19962609 -42 18 C-36.76493563 12.76493563 -27.11245093 10.81946419 -20 9 C-20 8.34 -20 7.68 -20 7 C-19.44570312 6.74605469 -18.89140625 6.49210937 -18.3203125 6.23046875 C-17.59585938 5.88628906 -16.87140625 5.54210937 -16.125 5.1875 C-15.04605469 4.68283203 -15.04605469 4.68283203 -13.9453125 4.16796875 C-11.69457194 3.00532903 -11.69457194 3.00532903 -10 0 C-6.55547211 -1.47622624 -3.58454175 -0.73320172 0 0 Z " fill="#0824C3" transform="translate(266,116)"/>
<path d="M0 0 C33.25809778 -0.02288958 66.5161936 -0.04051004 99.77429751 -0.05106533 C103.70085005 -0.05231603 107.62740257 -0.05361036 111.55395508 -0.05493164 C112.33565998 -0.05519395 113.11736487 -0.05545626 113.9227578 -0.05572652 C126.57949005 -0.06007765 139.23621776 -0.06796215 151.89294732 -0.0771528 C164.88021336 -0.08650479 177.86747702 -0.09205889 190.85474628 -0.09408849 C198.86836653 -0.0954605 206.88197394 -0.09979371 214.89559024 -0.10791647 C221.04075195 -0.11382798 227.18590387 -0.11445503 233.33106804 -0.11310768 C235.85178074 -0.11338307 238.37249393 -0.1153758 240.89320374 -0.11920547 C244.3327155 -0.12417528 247.77217216 -0.12298607 251.21168518 -0.12025452 C252.21072374 -0.12316736 253.20976231 -0.1260802 254.23907477 -0.12908131 C259.26961956 -0.11827168 264.04179442 0.13585619 269 1 C269 1.33 269 1.66 269 2 C180.89 2 92.78 2 2 2 C2 2.66 2 3.32 2 4 C1.34 4 0.68 4 0 4 C0 2.68 0 1.36 0 0 Z " fill="#1038EB" transform="translate(56,74)"/>
<path d="M0 0 C1.76462683 3.08809695 2 4.23312136 2 8 C2.66 8 3.32 8 4 8 C4.33 9.32 4.66 10.64 5 12 C5.66 12 6.32 12 7 12 C7.45572917 13.98567708 7.91145833 15.97135417 8.3671875 17.95703125 C8.98007723 20.27742974 8.98007723 20.27742974 11 23 C13.05925139 23.72382467 13.05925139 23.72382467 15 24 C15 25.98 15 27.96 15 30 C15.66 30 16.32 30 17 30 C17.433125 30.763125 17.86625 31.52625 18.3125 32.3125 C20.20749829 35.33046024 21.95374309 36.27104338 25 38 C25 38.66 25 39.32 25 40 C26.32 40 27.64 40 29 40 C29.33 40.99 29.66 41.98 30 43 C46.20515058 53.10191205 62.52993401 53.15978107 80.96875 53.16796875 C82.69730658 53.17119302 84.4258629 53.1745579 86.15441895 53.17805481 C89.76506175 53.18400975 93.37568076 53.18589861 96.98632812 53.18530273 C101.55328488 53.18520162 106.12008438 53.1988174 110.68700409 53.21607494 C114.25639509 53.22734232 117.82574992 53.22921745 121.39515686 53.22869301 C123.07561278 53.2298525 124.75607029 53.23415581 126.43650818 53.24202538 C138.74152769 53.29423616 150.77954672 52.40820038 163 51 C164.69519067 50.81076972 166.39046008 50.62224321 168.08581543 50.43449402 C169.37749634 50.29111099 170.66917725 50.14772797 172 50 C170 53 170 53 168.22265625 53.6953125 C155.08677726 56.30823599 141.93821073 56.17811543 128.6015625 56.203125 C127.57978283 56.20595238 126.55800316 56.20877975 125.50526047 56.21169281 C120.10213723 56.22661093 114.6990402 56.23588805 109.29589844 56.24023438 C103.74954487 56.24572088 98.20343651 56.2697742 92.65715981 56.29820633 C88.35888994 56.31692512 84.06067823 56.32204312 79.76237106 56.32357025 C77.71886219 56.32657436 75.67535379 56.33452594 73.63188553 56.34775543 C50.85980232 56.48471561 33.54946396 52.24961731 16.6875 35.9375 C10 29.0660609 10 29.0660609 10 25 C9.34 25 8.68 25 8 25 C0.14806378 8.29157175 0.14806378 8.29157175 0 0 Z " fill="#021BBF" transform="translate(51,84)"/>
<path d="M0 0 C0.33 0 0.66 0 1 0 C1 43.56 1 87.12 1 132 C15.70060069 131.33611053 15.70060069 131.33611053 29.49609375 128.62109375 C32 128 32 128 35 128 C35 127.34 35 126.68 35 126 C36.32 126 37.64 126 39 126 C39 125.34 39 124.68 39 124 C40.32 124 41.64 124 43 124 C43 123.34 43 122.68 43 122 C43.99 122 44.98 122 46 122 C46 121.34 46 120.68 46 120 C46.99 120 47.98 120 49 120 C49 119.34 49 118.68 49 118 C50.66666667 117 52.33333333 116 54 115 C55.3303125 113.6696875 55.3303125 113.6696875 56.6875 112.3125 C57.8321875 111.1678125 57.8321875 111.1678125 59 110 C59.66 110 60.32 110 61 110 C61.268125 109.4225 61.53625 108.845 61.8125 108.25 C63 106 63 106 64.5625 104 C66.03193986 101.95556194 66.56164648 100.45477972 67 98 C67.66 98 68.32 98 69 98 C69 97.34 69 96.68 69 96 C69.66 96 70.32 96 71 96 C71.66 94.02 72.32 92.04 73 90 C73.33 90 73.66 90 74 90 C73.62834433 95.94649079 71.85341397 100.37830412 68 105 C67.34 105 66.68 105 66 105 C65.5978125 106.2065625 65.5978125 106.2065625 65.1875 107.4375 C64.795625 108.283125 64.40375 109.12875 64 110 C62.515 110.495 62.515 110.495 61 111 C60.731875 111.5775 60.46375 112.155 60.1875 112.75 C54.51060559 123.50622098 37.74658178 129.56711933 26.9296875 133.16796875 C20.76376556 134.91909058 14.98281057 135.12841032 8.625 135.0625 C7.79355469 135.05798828 6.96210937 135.05347656 6.10546875 135.04882812 C4.07028103 135.03713164 2.03513077 135.01919935 0 135 C-1.29118633 132.41762734 -1.10679965 130.60235826 -1.08229065 127.71029663 C-1.07525116 126.58846481 -1.06821167 125.466633 -1.06095886 124.31080627 C-1.04801285 123.0743486 -1.03506683 121.83789093 -1.02172852 120.56396484 C-1.01212097 119.26644791 -1.00251343 117.96893097 -0.99261475 116.63209534 C-0.96611069 113.06822948 -0.93333594 109.50444526 -0.89946485 105.94064283 C-0.8651446 102.21840227 -0.83655033 98.49611791 -0.80735779 94.77383423 C-0.75118227 87.72254353 -0.68983102 80.67130768 -0.62663645 73.62007678 C-0.55495245 65.59361316 -0.48901369 57.5671056 -0.42356598 49.54058909 C-0.28878607 33.02700188 -0.14676373 16.51348515 0 0 Z " fill="#051AAF" transform="translate(51,306)"/>
<path d="M0 0 C1.80097019 3.03977796 2.20816216 4.74213862 1.53125 8.203125 C1.37551514 9.01064209 1.21978027 9.81815918 1.05932617 10.65014648 C0.87474854 11.50809814 0.6901709 12.3660498 0.5 13.25 C0.22023315 14.58430054 0.22023315 14.58430054 -0.06518555 15.94555664 C-5.04287377 38.49131906 -16.20240568 57.25455002 -32 74 C-32.58523438 74.63808594 -33.17046875 75.27617187 -33.7734375 75.93359375 C-46.7320294 89.59182794 -69.435181 102.453866 -88.5625 103.125 C-89.366875 103.08375 -90.17125 103.0425 -91 103 C-85.39521098 100.08550971 -79.8746835 97.93509118 -73.8125 96.1875 C-67.95404092 94.44487965 -62.74445484 92.05133742 -57.36328125 89.171875 C-55 88 -55 88 -53 88 C-53 87.34 -53 86.68 -53 86 C-50.03 85.01 -50.03 85.01 -47 84 C-47 83.34 -47 82.68 -47 82 C-46.34 82 -45.68 82 -45 82 C-45 81.34 -45 80.68 -45 80 C-44.13375 79.649375 -43.2675 79.29875 -42.375 78.9375 C-38.23851122 76.56284904 -35.94934417 73.66585151 -33 70 C-30.75 67.5625 -30.75 67.5625 -29 66 C-28.34 66 -27.68 66 -27 66 C-26.731875 65.05125 -26.46375 64.1025 -26.1875 63.125 C-25 60 -25 60 -22 58 C-21.27617533 55.94074861 -21.27617533 55.94074861 -21 54 C-20.34 54 -19.68 54 -19 54 C-19 53.34 -19 52.68 -19 52 C-18.34 52 -17.68 52 -17 52 C-17.04125 51.0925 -17.0825 50.185 -17.125 49.25 C-17.00468444 46.1217954 -16.6085292 44.61385994 -15 42 C-14.34 42 -13.68 42 -13 42 C-13 41.34 -13 40.68 -13 40 C-12.34 40 -11.68 40 -11 40 C-6.46425436 26.87020998 -2.65872358 13.6394681 0 0 Z " fill="#0625BF" transform="translate(415,224)"/>
<path d="M0 0 C58.08 0.33 116.16 0.66 176 1 C176 1.33 176 1.66 176 2 C119.24 2 62.48 2 4 2 C3.67 13.88 3.34 25.76 3 38 C0.09259121 55.91338965 0.09259121 55.91338965 -3 63 C-3.66 63 -4.32 63 -5 63 C-5.495 63.99 -5.495 63.99 -6 65 C-5.5978125 63.205625 -5.5978125 63.205625 -5.1875 61.375 C-0.21001638 38.84533728 -0.62837525 26.39176044 0 0 Z " fill="#010CE6" transform="translate(132,328)"/>
<path d="M0 0 C1.54174141 3.08348282 2.37553929 5.08585001 3.0703125 8.328125 C3.24433594 9.12734375 3.41835938 9.9265625 3.59765625 10.75 C3.77167969 11.575 3.94570313 12.4 4.125 13.25 C4.30675781 14.09046875 4.48851562 14.9309375 4.67578125 15.796875 C5.12199541 17.86355111 5.56164445 19.93164277 6 22 C5.67 18.7 5.34 15.4 5 12 C13.80983701 29.61967402 9.9103904 54.21176641 8 73 C6.515 73.495 6.515 73.495 5 74 C4.19648164 75.89304442 4.19648164 75.89304442 3.7890625 78.234375 C3.59860352 79.11311279 3.40814453 79.99185059 3.21191406 80.8972168 C2.9213916 82.30934448 2.9213916 82.30934448 2.625 83.75 C0.60942329 92.90317172 -1.78554317 101.57108635 -6 110 C-6.66 110 -7.32 110 -8 110 C-8 108.02 -8 106.04 -8 104 C-7.34 104 -6.68 104 -6 104 C-6 103.34 -6 102.68 -6 102 C-5.34 102 -4.68 102 -4 102 C-4 100.02 -4 98.04 -4 96 C-3.34 96 -2.68 96 -2 96 C-2 94.02 -2 92.04 -2 90 C-1.34 90 -0.68 90 0 90 C0 86.7 0 83.4 0 80 C0.66 80 1.32 80 2 80 C2 76.7 2 73.4 2 70 C2.66 70 3.32 70 4 70 C4 68.68 4 67.36 4 66 C4.66 66 5.32 66 6 66 C6 54.78 6 43.56 6 32 C5.34 32 4.68 32 4 32 C4 28.7 4 25.4 4 22 C3.34 22 2.68 22 2 22 C2 18.7 2 15.4 2 12 C1.34 12 0.68 12 0 12 C0 8.04 0 4.08 0 0 Z " fill="#0A29C6" transform="translate(410,154)"/>
<path d="M0 0 C22.11 0 44.22 0 67 0 C67.60318549 8.44459688 68.15462012 16.58179341 68 25 C67.34 25.33 66.68 25.66 66 26 C66 18.08 66 10.16 66 2 C44.88 2 23.76 2 2 2 C2 23.78 2 45.56 2 68 C2.66 68 3.32 68 4 68 C4 68.66 4 69.32 4 70 C2.68 70 1.36 70 0 70 C0 46.9 0 23.8 0 0 Z " fill="#1438DE" transform="translate(114,162)"/>
<path d="M0 0 C1.29065057 3.8719517 0.22324098 6.44232601 -0.9375 10.1875 C-1.13279297 10.84169922 -1.32808594 11.49589844 -1.52929688 12.16992188 C-2.01182563 13.78227407 -2.50490205 15.39146289 -3 17 C-3.66 17 -4.32 17 -5 17 C-5 18.32 -5 19.64 -5 21 C-5.66 21 -6.32 21 -7 21 C-7.226875 21.845625 -7.45375 22.69125 -7.6875 23.5625 C-9.01903246 27.04984692 -10.61693504 29.46696362 -12.87890625 32.38671875 C-14.19722062 34.12217901 -14.19722062 34.12217901 -15 37 C-16 38 -17 39 -18 40 C-18.33 40.99 -18.66 41.98 -19 43 C-19.66 43 -20.32 43 -21 43 C-21.33 44.98 -21.66 46.96 -22 49 C-22.99 49 -23.98 49 -25 49 C-25 49.66 -25 50.32 -25 51 C-26.32 51 -27.64 51 -29 51 C-29 51.66 -29 52.32 -29 53 C-31.12901421 54.85690706 -33.26189934 56.5959233 -35.5 58.3125 C-36.1384082 58.8072583 -36.77681641 59.3020166 -37.43457031 59.81176758 C-49.40614929 69 -49.40614929 69 -53 69 C-53 69.66 -53 70.32 -53 71 C-55.34677981 72.18396099 -57.70061349 73.34688293 -60.0625 74.5 C-60.71927734 74.83386719 -61.37605469 75.16773438 -62.05273438 75.51171875 C-66.53081486 77.67355071 -69.92696972 78.49252721 -75 78 C-78.4375 76.5 -78.4375 76.5 -81 75 C-79.02 74.01 -79.02 74.01 -77 73 C-77 73.66 -77 74.32 -77 75 C-73.37 75 -69.74 75 -66 75 C-66 74.34 -66 73.68 -66 73 C-63.3773768 71.66180502 -60.75213401 70.3292849 -58.125 69 C-57.37863281 68.6184375 -56.63226563 68.236875 -55.86328125 67.84375 C-55.14785156 67.4828125 -54.43242187 67.121875 -53.6953125 66.75 C-52.7055542 66.24726563 -52.7055542 66.24726563 -51.69580078 65.734375 C-50 65 -50 65 -48 65 C-48 64.34 -48 63.68 -48 63 C-46.453125 61.87890625 -46.453125 61.87890625 -44.25 60.5625 C-31.62840977 52.39325026 -16.84620427 38.53861282 -12 24 C-11.34 24 -10.68 24 -10 24 C-9.82984375 23.46632812 -9.6596875 22.93265625 -9.484375 22.3828125 C-7.81436081 17.24840717 -5.93867307 12.24773633 -3.8671875 7.26171875 C-2.9507037 5.03877179 -2.9507037 5.03877179 -2.5078125 2.76953125 C-2.34023438 2.18558594 -2.17265625 1.60164062 -2 1 C-1.34 0.67 -0.68 0.34 0 0 Z " fill="#0724BF" transform="translate(333,213)"/>
<path d="M0 0 C14.62959712 -0.14026874 29.25910503 -0.24601889 43.88923836 -0.31087303 C50.6825727 -0.34178884 57.47548882 -0.38392442 64.26855469 -0.45263672 C70.82374375 -0.51891117 77.37866145 -0.55370274 83.93416977 -0.56926346 C86.43567623 -0.58035323 88.9371588 -0.60200906 91.43848038 -0.63438034 C94.94144397 -0.67791321 98.44261038 -0.683935 101.94580078 -0.68115234 C102.98086258 -0.702724 104.01592438 -0.72429565 105.08235168 -0.746521 C109.95982108 -0.70457385 113.07005912 -0.5516336 116.69088745 2.91757202 C119 6 119 6 119 8 C119.85078125 8.37125 119.85078125 8.37125 120.71875 8.75 C124.21912089 10.66801145 126.87451276 13.41735435 129.78125 16.125 C131.80210453 17.8327644 133.58862556 18.94776388 136 20 C136 20.66 136 21.32 136 22 C137.36125 22.433125 137.36125 22.433125 138.75 22.875 C141.32202908 23.76531776 143.61346766 24.71494413 146 26 C146 26.66 146 27.32 146 28 C146.66 28 147.32 28 148 28 C148 28.66 148 29.32 148 30 C148.66 30.33 149.32 30.66 150 31 C148.68 31 147.36 31 146 31 C146 30.34 146 29.68 146 29 C145.12472656 28.7525 144.24945313 28.505 143.34765625 28.25 C139.80907778 26.92871049 137.4148929 25.3039854 134.4375 23 C131.04150746 20.37954618 128.06320105 18.41073165 124 17 C124 16.34 124 15.68 124 15 C123.34 15 122.68 15 122 15 C122 14.34 122 13.68 122 13 C121.34 13 120.68 13 120 13 C120 12.34 120 11.68 120 11 C119.34 11 118.68 11 118 11 C118 10.01 118 9.02 118 8 C117.01 7.67 116.02 7.34 115 7 C115 6.34 115 5.68 115 5 C114.01 5 113.02 5 112 5 C112 4.01 112 3.02 112 2 C75.04 1.67 38.08 1.34 0 1 C0 0.67 0 0.34 0 0 Z " fill="#0420AF" transform="translate(100,255)"/>
<path d="M0 0 C2.97 0 5.94 0 9 0 C5.42690902 2.38206065 2.13513932 2.91957453 -2.01559448 3.59797668 C-3.2157958 3.79422173 -3.2157958 3.79422173 -4.4402436 3.99443132 C-13.21383917 5.32555157 -21.89404428 5.44156769 -30.75048828 5.43237305 C-32.54623068 5.44141875 -34.34196698 5.45175269 -36.13769531 5.46325684 C-40.95054242 5.49052373 -45.76327146 5.50006949 -50.5761857 5.50611091 C-55.62903307 5.51557463 -60.68179492 5.5417836 -65.73458862 5.56611633 C-75.27503355 5.6095671 -84.81546169 5.63824501 -94.35597503 5.66143972 C-105.2292705 5.6886071 -116.10247902 5.73251088 -126.97571206 5.77772844 C-149.31709441 5.87026742 -171.65850279 5.94208797 -194 6 C-194 5.34 -194 4.68 -194 4 C-135.92 4 -77.84 4 -18 4 C-18 3.34 -18 2.68 -18 2 C-12.06 2 -6.12 2 0 2 C0 1.34 0 0.68 0 0 Z " fill="#1937CB" transform="translate(326,322)"/>
<path d="M0 0 C1.76462683 3.08809695 2 4.23312136 2 8 C2.66 8 3.32 8 4 8 C4.33 9.32 4.66 10.64 5 12 C5.66 12 6.32 12 7 12 C7.45572917 13.98567708 7.91145833 15.97135417 8.3671875 17.95703125 C8.98007723 20.27742974 8.98007723 20.27742974 11 23 C13.05925139 23.72382467 13.05925139 23.72382467 15 24 C15 25.98 15 27.96 15 30 C15.66 30 16.32 30 17 30 C17.433125 30.763125 17.86625 31.52625 18.3125 32.3125 C20.20749829 35.33046024 21.95374309 36.27104338 25 38 C25 38.66 25 39.32 25 40 C26.32 40 27.64 40 29 40 C29.33 40.99 29.66 41.98 30 43 C37.63252285 47.93482081 46.30298537 50.6153347 55 53 C51.27207117 55.18361978 48.911344 55.03538914 44.6953125 53.95703125 C31.71333438 49.34748829 18.92302491 40.51434831 11 29.125 C10 27 10 27 10 25 C9.34 25 8.68 25 8 25 C0.14806378 8.29157175 0.14806378 8.29157175 0 0 Z " fill="#0725C2" transform="translate(51,84)"/>
<path d="M0 0 C0.66 0 1.32 0 2 0 C2.02505615 0.64960693 2.0501123 1.29921387 2.07592773 1.96850586 C2.19313851 4.95831088 2.31528919 7.94789535 2.4375 10.9375 C2.47681641 11.95908203 2.51613281 12.98066406 2.55664062 14.03320312 C3.32529034 32.53992308 6.84259007 51.67892499 15.3984375 68.30078125 C16 70 16 70 15 73 C2.51251 60.51251 -0.74035707 31.71701029 -1 15 C-1.02707031 13.70449219 -1.05414063 12.40898437 -1.08203125 11.07421875 C-1.15825835 4.17913099 -1.15825835 4.17913099 -1 1 C-0.67 0.67 -0.34 0.34 0 0 Z " fill="#0525B9" transform="translate(182,161)"/>
<path d="M0 0 C0.66 0 1.32 0 2 0 C2.10049716 5.65180545 2.17221858 11.30306672 2.21972656 16.95556641 C2.23957563 18.8697213 2.26666402 20.78381782 2.30175781 22.69775391 C2.55227979 36.73435301 1.464678 49.60596599 -3 63 C-2.34 63 -1.68 63 -1 63 C-2.12451727 65.9719385 -3.22293791 68.33440687 -5 71 C-6.00496852 67.98509443 -6.10335303 65.95818308 -6.0625 62.8125 C-6.05347656 61.91144531 -6.04445313 61.01039063 -6.03515625 60.08203125 C-6.02355469 59.39496094 -6.01195313 58.70789063 -6 58 C-5.34 58 -4.68 58 -4 58 C-4 54.04 -4 50.08 -4 46 C-3.34 46 -2.68 46 -2 46 C-2.020625 45.195625 -2.04125 44.39125 -2.0625 43.5625 C-2 41 -2 41 -1 40 C-0.83970312 37.04470496 -0.74042672 34.11017543 -0.68359375 31.15234375 C-0.66281265 30.2659169 -0.64203156 29.37949005 -0.62062073 28.46620178 C-0.555026 25.623383 -0.49619448 22.78046883 -0.4375 19.9375 C-0.3943242 18.01496394 -0.35071022 16.09243766 -0.30664062 14.16992188 C-0.19933457 9.44671332 -0.09809549 4.72340847 0 0 Z " fill="#1238DE" transform="translate(130,328)"/>
<path d="M0 0 C-2.86192991 1.90795327 -5.27790075 2.92350524 -8.5 4.0625 C-9.93859375 4.57490234 -9.93859375 4.57490234 -11.40625 5.09765625 C-13.26636077 5.7447731 -15.13160628 6.37720209 -17 7 C-17 7.66 -17 8.32 -17 9 C-18.32 9 -19.64 9 -21 9 C-21 9.66 -21 10.32 -21 11 C-22.57421875 12.48046875 -22.57421875 12.48046875 -24.6875 14.1875 C-29.55349655 18.32877366 -33.66516251 22.55062728 -35 29 C-35.66 29 -36.32 29 -37 29 C-39.10396411 34.93317878 -40.75971762 40.82777121 -42 47 C-42.33 47 -42.66 47 -43 47 C-44.89095952 36.07445609 -38.78150728 26.75736333 -33.00390625 17.9609375 C-28.85554188 12.43534954 -24.18818519 8.15828539 -18 5 C-17.34 5 -16.68 5 -16 5 C-16 4.34 -16 3.68 -16 3 C-10.28264895 0.54970669 -6.20970773 -0.33266291 0 0 Z " fill="#0622C1" transform="translate(95,257)"/>
<path d="M0 0 C-0.33 0.99 -0.66 1.98 -1 3 C-2.98 3 -4.96 3 -7 3 C-7 3.66 -7 4.32 -7 5 C-7.66 5 -8.32 5 -9 5 C-9 5.66 -9 6.32 -9 7 C-14.94 7 -20.88 7 -27 7 C-27 14.26 -27 21.52 -27 29 C-27.33 29 -27.66 29 -28 29 C-28.33 23.39 -28.66 17.78 -29 12 C-29.33 15.63 -29.66 19.26 -30 23 C-30.33 23 -30.66 23 -31 23 C-31 17.06 -31 11.12 -31 5 C-26.854375 4.3503125 -26.854375 4.3503125 -22.625 3.6875 C-16.52104401 2.7075952 -10.68438043 1.55311042 -4.84765625 -0.546875 C-3 -1 -3 -1 0 0 Z " fill="#0A27C3" transform="translate(235,155)"/>
<path d="M0 0 C0.99 0 1.98 0 3 0 C3 2.64 3 5.28 3 8 C2.34 8 1.68 8 1 8 C1 11.3 1 14.6 1 18 C0.34 18 -0.32 18 -1 18 C-2.00259507 21.00778521 -2.30314642 23.53820647 -2.5625 26.6875 C-2.64628906 27.68136719 -2.73007812 28.67523438 -2.81640625 29.69921875 C-2.87699219 30.45847656 -2.93757813 31.21773437 -3 32 C-3.66 32 -4.32 32 -5 32 C-5 32.66 -5 33.32 -5 34 C-5.66 34 -6.32 34 -7 34 C-7 34.66 -7 35.32 -7 36 C-8.32 36 -9.64 36 -11 36 C-11.33 36.99 -11.66 37.98 -12 39 C-12.99 38.34 -13.98 37.68 -15 37 C-14.236875 35.96875 -13.47375 34.9375 -12.6875 33.875 C-10.42984469 30.72582739 -8.63254992 27.52287088 -7 24 C-6.34 24 -5.68 24 -5 24 C-5 22.68 -5 21.36 -5 20 C-4.34 20 -3.68 20 -3 20 C-2.87625 18.845 -2.7525 17.69 -2.625 16.5 C-2.25941576 13.47317755 -1.68198912 10.62646713 -0.875 7.6875 C0.32142786 4.08642754 0.32142786 4.08642754 -1 1 C-0.67 0.67 -0.34 0.34 0 0 Z " fill="#113AEB" transform="translate(333,210)"/>
<path d="M0 0 C2.06991325 3.85847906 3.57756795 7.91300244 5.125 12 C5.40214844 12.7115625 5.67929688 13.423125 5.96484375 14.15625 C7.29936302 17.6799068 8 20.18630907 8 24 C-5.2 24 -18.4 24 -32 24 C-32 23.34 -32 22.68 -32 22 C-21.44 22 -10.88 22 0 22 C0.33 21.34 0.66 20.68 1 20 C1.99 20 2.98 20 4 20 C4 18.68 4 17.36 4 16 C3.34 16 2.68 16 2 16 C-0.27141454 10.60539047 -0.20413361 5.73842251 0 0 Z " fill="#0F38EA" transform="translate(186,208)"/>
<path d="M0 0 C2.42578125 0.20703125 2.42578125 0.20703125 5.3125 0.8125 C6.25738281 1.00457031 7.20226562 1.19664062 8.17578125 1.39453125 C9.10777344 1.59433594 10.03976562 1.79414063 11 2 C12.66631505 2.33508661 14.33286779 2.66900289 16 3 C16 3.99 16 4.98 16 6 C21.28 6.99 26.56 7.98 32 9 C32.0793016 17.08876337 32.03555846 24.97442193 31 33 C30.67 33 30.34 33 30 33 C30 25.74 30 18.48 30 11 C28.02 11 26.04 11 24 11 C24 10.34 24 9.68 24 9 C20.7 9 17.4 9 14 9 C14 8.34 14 7.68 14 7 C12.02 7 10.04 7 8 7 C8 6.34 8 5.68 8 5 C5.98177083 5.09765625 3.96354167 5.1953125 1.9453125 5.29296875 C1.30335938 5.19628906 0.66140625 5.09960938 0 5 C-0.66 4.01 -1.32 3.02 -2 2 C-1.34 1.34 -0.68 0.68 0 0 Z " fill="#1439DA" transform="translate(284,153)"/>
<path d="M0 0 C0.99 0.33 1.98 0.66 3 1 C3 9.91 3 18.82 3 28 C3.33 28 3.66 28 4 28 C4 35.92 4 43.84 4 52 C2.02 52.495 2.02 52.495 0 53 C0 35.51 0 18.02 0 0 Z " fill="#1037E0" transform="translate(340,140)"/>
<path d="M0 0 C1.98 0 3.96 0 6 0 C7 2 8 4 9 6 C9.66 6.33 10.32 6.66 11 7 C10.67 7.99 10.34 8.98 10 10 C10.66 10 11.32 10 12 10 C12.33 10.99 12.66 11.98 13 13 C14.65948148 14.01187895 16.32580562 15.0126546 18 16 C18 16.66 18 17.32 18 18 C18.66 18 19.32 18 20 18 C20 18.66 20 19.32 20 20 C19.34 20 18.68 20 18 20 C18 20.66 18 21.32 18 22 C17.34 22 16.68 22 16 22 C16 21.34 16 20.68 16 20 C15.34 20 14.68 20 14 20 C14 19.34 14 18.68 14 18 C13.34 18 12.68 18 12 18 C12 17.34 12 16.68 12 16 C11.34 16 10.68 16 10 16 C8.20061289 13.93217973 6.52853912 11.86674414 4.875 9.6875 C4.17310547 8.79514648 4.17310547 8.79514648 3.45703125 7.88476562 C0 3.37449891 0 3.37449891 0 0 Z " fill="#133AED" transform="translate(222,228)"/>
<path d="M0 0 C0.66 0 1.32 0 2 0 C1.33885838 6.18742317 0.19245731 12.13657934 -1.25 18.1875 C-1.46817383 19.10571533 -1.68634766 20.02393066 -1.91113281 20.9699707 C-3.86808108 28.93984548 -6.31784583 36.63569166 -10 44 C-10.66 44 -11.32 44 -12 44 C-12 42.02 -12 40.04 -12 38 C-11.34 38 -10.68 38 -10 38 C-10 37.34 -10 36.68 -10 36 C-9.34 36 -8.68 36 -8 36 C-8 34.02 -8 32.04 -8 30 C-7.34 30 -6.68 30 -6 30 C-6 28.02 -6 26.04 -6 24 C-5.34 24 -4.68 24 -4 24 C-4 20.7 -4 17.4 -4 14 C-3.34 14 -2.68 14 -2 14 C-2 10.7 -2 7.4 -2 4 C-1.34 4 -0.68 4 0 4 C0 2.68 0 1.36 0 0 Z " fill="#1337D8" transform="translate(414,220)"/>
<path d="M0 0 C0.99 0.99 0.99 0.99 2 2 C1.67 2.99 1.34 3.98 1 5 C0.01 4.505 0.01 4.505 -1 4 C-3.62431149 3.90694844 -6.22184796 3.87420385 -8.84619141 3.88647461 C-9.65602982 3.88632858 -10.46586823 3.88618256 -11.30024719 3.8860321 C-13.98404596 3.88673023 -16.66777581 3.89451796 -19.3515625 3.90234375 C-21.20958417 3.90420829 -23.06760633 3.90563202 -24.92562866 3.90663147 C-29.82142488 3.91045385 -34.71719155 3.92028177 -39.61297607 3.93133545 C-44.60656331 3.94155556 -49.60015532 3.94613038 -54.59375 3.95117188 C-64.39584634 3.96190427 -74.19792071 3.97897736 -84 4 C-81.4880141 1.4880141 -79.97367159 1.76475862 -76.54733276 1.75115967 C-75.78776276 1.75835022 -75.02819275 1.76554077 -74.24560547 1.77294922 C-73.44552063 1.77265717 -72.64543579 1.77236511 -71.82110596 1.77206421 C-69.16969047 1.77346044 -66.51855406 1.7890353 -63.8671875 1.8046875 C-62.03158726 1.80841659 -60.19598502 1.81126405 -58.36038208 1.81326294 C-53.52372768 1.8209076 -48.68719297 1.8405632 -43.85058594 1.8626709 C-38.91733418 1.88311143 -33.98406313 1.89226081 -29.05078125 1.90234375 C-19.36713485 1.92380833 -9.68357737 1.95795428 0 2 C0 1.34 0 0.68 0 0 Z " fill="#001AB0" transform="translate(195,230)"/>
<path d="M0 0 C0.33 0 0.66 0 1 0 C1.90579955 7.3110964 2.41269254 14.63222429 2 22 C1.67 22.33 1.34 22.66 1 23 C0.63239269 25.32817964 0.29758419 27.6618385 0 30 C-0.66 30 -1.32 30 -2 30 C-2.66 31.32 -3.32 32.64 -4 34 C-5.31248427 30.0625472 -4.41136159 26.9575903 -3.625 23 C-2.4963279 17.03488562 -1.60539764 11.16873518 -1.2109375 5.1015625 C-1 3 -1 3 0 0 Z " fill="#1839D1" transform="translate(338,178)"/>
<path d="M0 0 C8.94881545 17.89763089 7.66140071 40.48359122 7 60 C6.67 60 6.34 60 6 60 C6 50.76 6 41.52 6 32 C5.34 32 4.68 32 4 32 C4 28.7 4 25.4 4 22 C3.34 22 2.68 22 2 22 C2 18.7 2 15.4 2 12 C1.34 12 0.68 12 0 12 C0 8.04 0 4.08 0 0 Z " fill="#1738CF" transform="translate(410,154)"/>
<path d="M0 0 C1.5969697 4.79090911 -0.05443353 9.15681656 -1.125 14 C-1.35147217 15.03842041 -1.57794434 16.07684082 -1.8112793 17.14672852 C-3.42924371 24.24491296 -5.35282281 30.65235969 -9 37 C-11 34 -11 34 -11 30 C-10.34 30 -9.68 30 -9 30 C-9 28.02 -9 26.04 -9 24 C-8.34 24 -7.68 24 -7 24 C-6.70996094 22.44539063 -6.70996094 22.44539063 -6.4140625 20.859375 C-6.15135133 19.48952391 -5.88831329 18.11973548 -5.625 16.75 C-5.49867188 16.06808594 -5.37234375 15.38617188 -5.2421875 14.68359375 C-4.55762033 11.15807283 -3.79080979 8.11947512 -2 5 C-1.32033324 3.33859237 -0.65061095 1.67299959 0 0 Z " fill="#0A28CC" transform="translate(317,184)"/>
<path d="M0 0 C1.76462683 3.08809695 2 4.23312136 2 8 C2.66 8 3.32 8 4 8 C4.33 9.32 4.66 10.64 5 12 C5.66 12 6.32 12 7 12 C7.45572917 13.98567708 7.91145833 15.97135417 8.3671875 17.95703125 C8.98007723 20.27742974 8.98007723 20.27742974 11 23 C13.05925139 23.72382467 13.05925139 23.72382467 15 24 C15 25.98 15 27.96 15 30 C15.66 30 16.32 30 17 30 C16.67 30.66 16.34 31.32 16 32 C11.2 29.53846154 11.2 29.53846154 10.1875 26.8125 C10.125625 26.214375 10.06375 25.61625 10 25 C9.34 25 8.68 25 8 25 C0.14806378 8.29157175 0.14806378 8.29157175 0 0 Z " fill="#0626B6" transform="translate(51,84)"/>
<path d="M0 0 C2.01526169 0.96887581 4.01833966 1.9641321 6 3 C6 3.66 6 4.32 6 5 C2.25 6.125 2.25 6.125 0 5 C0 5.66 0 6.32 0 7 C-2.64 7 -5.28 7 -8 7 C-8.66 5.68 -9.32 4.36 -10 3 C-9.34 3 -8.68 3 -8 3 C-8 2.34 -8 1.68 -8 1 C-4.88893125 -0.88886317 -3.41626633 -1.30621948 0 0 Z " fill="#0A33ED" transform="translate(264,145)"/>
<path d="M0 0 C0.60328125 0.08378906 1.2065625 0.16757813 1.828125 0.25390625 C3.02695312 0.40666016 3.02695312 0.40666016 4.25 0.5625 C5.03890625 0.66691406 5.8278125 0.77132812 6.640625 0.87890625 C8.98056802 1.11541837 8.98056802 1.11541837 11.109375 0.46484375 C13 0 13 0 16 1 C15.67 1.66 15.34 2.32 15 3 C15.85464844 3.33773437 16.70929688 3.67546875 17.58984375 4.0234375 C18.69457031 4.46945313 19.79929687 4.91546875 20.9375 5.375 C22.03964844 5.81585938 23.14179688 6.25671875 24.27734375 6.7109375 C27 8 27 8 28 10 C26.68 10 25.36 10 24 10 C24 9.34 24 8.68 24 8 C21.36 8 18.72 8 16 8 C16 7.34 16 6.68 16 6 C14.68 6 13.36 6 12 6 C12 5.34 12 4.68 12 4 C8.7 4 5.4 4 2 4 C1.34 2.68 0.68 1.36 0 0 Z " fill="#1539DB" transform="translate(326,76)"/>
<path d="M0 0 C2.12281949 3.46844622 2.24549656 6.20692151 2.23046875 10.234375 C2.22853516 11.44867188 2.22660156 12.66296875 2.22460938 13.9140625 C2.21236328 15.17992187 2.20011719 16.44578125 2.1875 17.75 C2.18685547 19.00039062 2.18621094 20.25078125 2.18554688 21.5390625 C2.15585902 27.78011031 1.968636 33.83172595 1 40 C0.67 40 0.34 40 0 40 C-0.16837379 35.26797113 -0.32884843 30.53576294 -0.48217773 25.80322266 C-0.53537297 24.19507741 -0.59068298 22.58700062 -0.64819336 20.97900391 C-0.73073602 18.66063186 -0.80553709 16.34211583 -0.87890625 14.0234375 C-0.90594131 13.31069672 -0.93297638 12.59795593 -0.96083069 11.86361694 C-1.08163157 7.77454797 -0.81442806 4.00907011 0 0 Z " fill="#041DB3" transform="translate(339,148)"/>
<path d="M0 0 C1.32 0 2.64 0 4 0 C2.63312778 3.98671063 0.84804907 6.88494633 -2 10 C-2.66 10 -3.32 10 -4 10 C-4.226875 10.5775 -4.45375 11.155 -4.6875 11.75 C-6.35981581 14.6168271 -8.27219731 16.13711036 -11 18 C-11.99 18 -12.98 18 -14 18 C-14 17.34 -14 16.68 -14 16 C-13.34 16 -12.68 16 -12 16 C-12 14.68 -12 13.36 -12 12 C-10.02 12 -8.04 12 -6 12 C-6 10.02 -6 8.04 -6 6 C-4.02 5.34 -2.04 4.68 0 4 C0 2.68 0 1.36 0 0 Z " fill="#1D3ED9" transform="translate(114,406)"/>
<path d="M0 0 C1.32 0 2.64 0 4 0 C4 0.66 4 1.32 4 2 C3.34 2 2.68 2 2 2 C1.95875 2.78375 1.9175 3.5675 1.875 4.375 C0.40044913 10.48385359 -2.71461472 16.47640981 -8 20 C-8 18.68 -8 17.36 -8 16 C-7.34 16 -6.68 16 -6 16 C-6 15.34 -6 14.68 -6 14 C-5.34 14 -4.68 14 -4 14 C-4 11.36 -4 8.72 -4 6 C-3.34 6 -2.68 6 -2 6 C-2 4.68 -2 3.36 -2 2 C-1.34 2 -0.68 2 0 2 C0 1.34 0 0.68 0 0 Z " fill="#0F37E9" transform="translate(302,218)"/>
<path d="M0 0 C-0.33 0.99 -0.66 1.98 -1 3 C-2.98 3 -4.96 3 -7 3 C-7 3.66 -7 4.32 -7 5 C-7.66 5 -8.32 5 -9 5 C-9 5.66 -9 6.32 -9 7 C-13.29 7 -17.58 7 -22 7 C-22 6.67 -22 6.34 -22 6 C-18.7 5.34 -15.4 4.68 -12 4 C-13.98 4 -15.96 4 -18 4 C-18 3.67 -18 3.34 -18 3 C-15.565036 2.30215669 -13.12772895 1.61646178 -10.6875 0.9375 C-9.65206055 0.63875977 -9.65206055 0.63875977 -8.59570312 0.33398438 C-3.33984375 -1.11328125 -3.33984375 -1.11328125 0 0 Z " fill="#1031CF" transform="translate(235,155)"/>
<path d="M0 0 C3.125 -0.1875 3.125 -0.1875 6 0 C5.67 0.66 5.34 1.32 5 2 C2.4375 2.625 2.4375 2.625 0 3 C0 3.66 0 4.32 0 5 C-2.18054584 5.97407603 -4.36236714 6.94498847 -6.546875 7.91015625 C-8.04121026 8.57404086 -9.53188424 9.24635724 -11.015625 9.93359375 C-14.34150402 11.44469965 -16.25866978 12 -20 12 C-20 11.34 -20 10.68 -20 10 C-18.68 10 -17.36 10 -16 10 C-16 9.34 -16 8.68 -16 8 C-14.02 8 -12.04 8 -10 8 C-10 6.68 -10 5.36 -10 4 C-6.97265625 3.75585938 -6.97265625 3.75585938 -3.9453125 3.51171875 C-1.60480784 3.12606964 -1.60480784 3.12606964 0 0 Z " fill="#1034D7" transform="translate(246,120)"/>
<path d="M0 0 C1.98 0.66 3.96 1.32 6 2 C6 2.66 6 3.32 6 4 C6.66 3.34 7.32 2.68 8 2 C11.29714793 2.32971479 12.6226839 2.6226839 15 5 C14.67 5.33 14.34 5.66 14 6 C14.66 6.66 15.32 7.32 16 8 C14.02 8 12.04 8 10 8 C10 7.34 10 6.68 10 6 C6.7 6 3.4 6 0 6 C-1 3 -1 3 0 0 Z " fill="#1138E8" transform="translate(240,282)"/>
<path d="M0 0 C-2 3 -2 3 -5.8125 4.1875 C-13.39651604 5.66251122 -21.46464565 5.74429499 -29 4 C-29 3.67 -29 3.34 -29 3 C-28.12263184 2.91697632 -28.12263184 2.91697632 -27.22753906 2.83227539 C-24.56804892 2.57882735 -21.90903168 2.32071175 -19.25 2.0625 C-18.32960937 1.97548828 -17.40921875 1.88847656 -16.4609375 1.79882812 C-15.57148438 1.71181641 -14.68203125 1.62480469 -13.765625 1.53515625 C-12.94868164 1.456604 -12.13173828 1.37805176 -11.29003906 1.29711914 C-1.06459618 -0.02957212 -1.06459618 -0.02957212 0 0 Z " fill="#0421C2" transform="translate(223,134)"/>
<path d="M0 0 C0.33 0 0.66 0 1 0 C3.53129736 20.02437021 3.53129736 20.02437021 0 28 C-0.37593066 29.9924325 -0.71979545 31.9918674 -1 34 C-1.33 34 -1.66 34 -2 34 C-2.12569081 26.59209782 -1.63016571 19.31639982 -1 11.9375 C-0.90460938 10.78572266 -0.80921875 9.63394531 -0.7109375 8.44726562 C-0.4772407 5.63121921 -0.24018777 2.81549893 0 0 Z " fill="#0523A6" transform="translate(316,161)"/>
<path d="M0 0 C0.66 0 1.32 0 2 0 C2 2.64 2 5.28 2 8 C2.66 8 3.32 8 4 8 C4 11.3 4 14.6 4 18 C4.66 18 5.32 18 6 18 C6 19.98 6 21.96 6 24 C5.34 24 4.68 24 4 24 C3.32114013 21.50276548 2.65682573 19.00303859 2 16.5 C1.80921875 15.80390625 1.6184375 15.1078125 1.421875 14.390625 C0.14322988 9.4587081 -0.18357474 5.09419909 0 0 Z " fill="#1235DE" transform="translate(208,184)"/>
<path d="M0 0 C0.66 0 1.32 0 2 0 C0.25 4.875 0.25 4.875 -2 6 C-3.99960012 6.039992 -6.00047242 6.04346799 -8 6 C-8 6.66 -8 7.32 -8 8 C-8.66 8 -9.32 8 -10 8 C-10 8.66 -10 9.32 -10 10 C-14.62 10 -19.24 10 -24 10 C-24 9.34 -24 8.68 -24 8 C-22.7625 8.12375 -21.525 8.2475 -20.25 8.375 C-14.56208567 8.42917061 -10.47564516 6.03291823 -5.6015625 3.3125 C-3 2 -3 2 0 2 C0 1.34 0 0.68 0 0 Z " fill="#1738D4" transform="translate(280,282)"/>
<path d="M0 0 C2.06991325 3.85847906 3.57756795 7.91300244 5.125 12 C5.40214844 12.7115625 5.67929688 13.423125 5.96484375 14.15625 C7.29936302 17.6799068 8 20.18630907 8 24 C7.34 24 6.68 24 6 24 C6 22.68 6 21.36 6 20 C5.34 20 4.68 20 4 20 C4 18.68 4 17.36 4 16 C3.34 16 2.68 16 2 16 C-0.27141454 10.60539047 -0.20413361 5.73842251 0 0 Z " fill="#1439D9" transform="translate(186,208)"/>
<path d="M0 0 C2.12493141 -0.02693575 4.24995912 -0.04636628 6.375 -0.0625 C7.55835938 -0.07410156 8.74171875 -0.08570312 9.9609375 -0.09765625 C13 0 13 0 15 1 C15 1.66 15 2.32 15 3 C16.65 3.66 18.3 4.32 20 5 C19.67 5.66 19.34 6.32 19 7 C18.34 7 17.68 7 17 7 C17 6.34 17 5.68 17 5 C15.68 5 14.36 5 13 5 C13 4.34 13 3.68 13 3 C9.7 3 6.4 3 3 3 C2.34 4.32 1.68 5.64 1 7 C0.34 7 -0.32 7 -1 7 C-1 6.34 -1 5.68 -1 5 C-0.34 5 0.32 5 1 5 C1 4.34 1 3.68 1 3 C0.34 2.67 -0.32 2.34 -1 2 C-0.67 1.34 -0.34 0.68 0 0 Z " fill="#0E36E7" transform="translate(253,113)"/>
<path d="M0 0 C2.42578125 0.20703125 2.42578125 0.20703125 5.3125 0.8125 C6.25738281 1.00457031 7.20226562 1.19664062 8.17578125 1.39453125 C9.10777344 1.59433594 10.03976562 1.79414063 11 2 C12.66631505 2.33508661 14.33286779 2.66900289 16 3 C16 3.66 16 4.32 16 5 C13.37438891 5.08074203 10.75124324 5.1403623 8.125 5.1875 C7.00544922 5.22520508 7.00544922 5.22520508 5.86328125 5.26367188 C3.6953125 5.29296875 3.6953125 5.29296875 0 5 C-0.66 4.01 -1.32 3.02 -2 2 C-1.34 1.34 -0.68 0.68 0 0 Z " fill="#1231CD" transform="translate(284,153)"/>
<path d="M0 0 C0.66 1.32 1.32 2.64 2 4 C1.34 4 0.68 4 0 4 C-0.33 5.98 -0.66 7.96 -1 10 C-1.99 10 -2.98 10 -4 10 C-4 10.66 -4 11.32 -4 12 C-5.65 11.67 -7.3 11.34 -9 11 C-8.06558465 9.72689688 -7.12732889 8.456612 -6.1875 7.1875 C-5.66542969 6.47980469 -5.14335937 5.77210938 -4.60546875 5.04296875 C-3.16871123 3.21468607 -1.68184237 1.60103312 0 0 Z " fill="#1032C3" transform="translate(312,252)"/>
<path d="M0 0 C0.33 0 0.66 0 1 0 C1.65720455 8.05075569 -0.77071154 15.35672529 -3 23 C-5.37316044 19.44025933 -4.91542827 18.09741387 -4.109375 14.04882812 C-3.94953125 13.31083984 -3.7896875 12.57285156 -3.625 11.8125 C-3.47289062 11.06291016 -3.32078125 10.31332031 -3.1640625 9.54101562 C-2.78713492 7.69171467 -2.39501397 5.84552225 -2 4 C-1.34 4 -0.68 4 0 4 C0 2.68 0 1.36 0 0 Z " fill="#0523C1" transform="translate(338,189)"/>
<path d="M0 0 C3.32687768 1.54684266 6.24703978 3.45954979 9.25 5.5625 C10.14203125 6.18253906 11.0340625 6.80257813 11.953125 7.44140625 C12.62859375 7.95574219 13.3040625 8.47007812 14 9 C14 9.33 14 9.66 14 10 C10.7 10 7.4 10 4 10 C4 8.02 4 6.04 4 4 C3.34 4 2.68 4 2 4 C2 3.34 2 2.68 2 2 C1.34 2 0.68 2 0 2 C0 1.34 0 0.68 0 0 Z " fill="#163ADD" transform="translate(226,272)"/>
<path d="M0 0 C1.32 0 2.64 0 4 0 C4 0.66 4 1.32 4 2 C3.34 2 2.68 2 2 2 C2 3.32 2 4.64 2 6 C3.32 6 4.64 6 6 6 C6 5.34 6 4.68 6 4 C6.66 4 7.32 4 8 4 C8 3.34 8 2.68 8 2 C8.66 2 9.32 2 10 2 C10 1.34 10 0.68 10 0 C10.99 0.33 11.98 0.66 13 1 C11.73742767 2.17560179 10.46462916 3.34022865 9.1875 4.5 C8.12595703 5.47453125 8.12595703 5.47453125 7.04296875 6.46875 C5 8 5 8 2 8 C2 8.66 2 9.32 2 10 C1.34 10 0.68 10 0 10 C0 6.7 0 3.4 0 0 Z " fill="#1239E2" transform="translate(368,296)"/>
<path d="M0 0 C5.66153846 1.47692308 5.66153846 1.47692308 7.375 4.125 C7.684375 5.053125 7.684375 5.053125 8 6 C8.66 6 9.32 6 10 6 C10 6.66 10 7.32 10 8 C9.34 8 8.68 8 8 8 C8 8.66 8 9.32 8 10 C7.34 10 6.68 10 6 10 C6 9.34 6 8.68 6 8 C5.34 8 4.68 8 4 8 C4 7.34 4 6.68 4 6 C3.34 6 2.68 6 2 6 C2 5.34 2 4.68 2 4 C1.34 4 0.68 4 0 4 C0 2.68 0 1.36 0 0 Z " fill="#0831E6" transform="translate(232,240)"/>
<path d="M0 0 C3.3 0 6.6 0 10 0 C10 0.66 10 1.32 10 2 C13.96 2 17.92 2 22 2 C22 2.33 22 2.66 22 3 C19.69 3.33 17.38 3.66 15 4 C15 4.33 15 4.66 15 5 C13.58376784 5.05447047 12.16691809 5.09300508 10.75 5.125 C9.96109375 5.14820313 9.1721875 5.17140625 8.359375 5.1953125 C5.79268059 4.9828378 4.2083933 4.28654105 2 3 C2.66 2.67 3.32 2.34 4 2 C2.68 1.34 1.36 0.68 0 0 Z " fill="#1032D0" transform="translate(304,134)"/>
<path d="M0 0 C0.33 0 0.66 0 1 0 C2.76733042 7.06932168 1.25278992 14.49442016 -2 21 C-2.66 21 -3.32 21 -4 21 C-4.33 21.66 -4.66 22.32 -5 23 C-4.5978125 21.205625 -4.5978125 21.205625 -4.1875 19.375 C-2.75302237 12.92501064 -1.37882015 6.46207045 0 0 Z " fill="#0522B7" transform="translate(131,370)"/>
<path d="M0 0 C3.3 0 6.6 0 10 0 C10 0.66 10 1.32 10 2 C11.98 2 13.96 2 16 2 C16 2.66 16 3.32 16 4 C13.89611431 4.05402274 11.79183286 4.09280256 9.6875 4.125 C7.92986328 4.15980469 7.92986328 4.15980469 6.13671875 4.1953125 C3 4 3 4 0 2 C0 1.34 0 0.68 0 0 Z " fill="#0E35E9" transform="translate(322,134)"/>
<path d="M0 0 C1.14926266 0.95421808 2.29430541 1.91352045 3.4375 2.875 C4.07558594 3.40867187 4.71367187 3.94234375 5.37109375 4.4921875 C7 6 7 6 8 8 C4.7 8 1.4 8 -2 8 C-2.125 5.125 -2.125 5.125 -2 2 C-1.34 1.34 -0.68 0.68 0 0 Z " fill="#0C33E7" transform="translate(380,104)"/>
<path d="M0 0 C1.65 0 3.3 0 5 0 C2.54294083 2.6325634 0.45895144 4.84701619 -3 6 C-5.65491264 5.68393897 -7.61205246 5.19397377 -10 4 C-10 3.34 -10 2.68 -10 2 C-6.7 2 -3.4 2 0 2 C0 1.34 0 0.68 0 0 Z " fill="#1138DE" transform="translate(266,258)"/>
<path d="M0 0 C-3.3 3.3 -6.6 6.6 -10 10 C-10.99 9.67 -11.98 9.34 -13 9 C-12.34 9 -11.68 9 -11 9 C-11 8.34 -11 7.68 -11 7 C-10.34 7 -9.68 7 -9 7 C-9 5.02 -9 3.04 -9 1 C-5.19495213 -0.79682816 -4.29399165 -1.07349791 0 0 Z " fill="#0F36E1" transform="translate(293,241)"/>
<path d="M0 0 C3.3 0 6.6 0 10 0 C7.00782838 2.24412872 5.31158554 3.46505924 2 4.6875 C1.34 4.93886719 0.68 5.19023437 0 5.44921875 C-2 6 -2 6 -6 6 C-6 5.34 -6 4.68 -6 4 C-4.68 4 -3.36 4 -2 4 C-2 3.34 -2 2.68 -2 2 C-1.34 2 -0.68 2 0 2 C0 1.34 0 0.68 0 0 Z " fill="#1037E1" transform="translate(342,316)"/>
<path d="M0 0 C0.66 0 1.32 0 2 0 C1.67 2.31 1.34 4.62 1 7 C1.66 7 2.32 7 3 7 C1.87548273 9.9719385 0.77706209 12.33440687 -1 15 C-2.00496852 11.98509443 -2.10335303 9.95818308 -2.0625 6.8125 C-2.05347656 5.91144531 -2.04445313 5.01039063 -2.03515625 4.08203125 C-2.02355469 3.39496094 -2.01195313 2.70789063 -2 2 C-1.34 2 -0.68 2 0 2 C0 1.34 0 0.68 0 0 Z " fill="#1839DC" transform="translate(126,384)"/>
<path d="M0 0 C1.32 0 2.64 0 4 0 C4 0.66 4 1.32 4 2 C5.32 2 6.64 2 8 2 C8 3.32 8 4.64 8 6 C2.25 7.125 2.25 7.125 0 6 C0 4.02 0 2.04 0 0 Z " fill="#0D32E9" transform="translate(356,88)"/>
<path d="M0 0 C0.66 0.33 1.32 0.66 2 1 C2 1.66 2 2.32 2 3 C-3.35006016 6.28767869 -7.68368172 8.59683075 -14 9 C-10.8745041 6.35534962 -7.91211733 5.15585285 -4 4 C-4 3.34 -4 2.68 -4 2 C-2.125 0.9375 -2.125 0.9375 0 0 Z " fill="#0219B4" transform="translate(366,308)"/>
<path d="M0 0 C0.721875 0.144375 1.44375 0.28875 2.1875 0.4375 C3.5796875 0.7159375 3.5796875 0.7159375 5 1 C6.66666667 1.33333333 8.33333333 1.66666667 10 2 C10 3.32 10 4.64 10 6 C10.66 6 11.32 6 12 6 C12 6.66 12 7.32 12 8 C12.66 8 13.32 8 14 8 C13.67 8.66 13.34 9.32 13 10 C11.49460339 9.05016642 9.99579653 8.08988109 8.5 7.125 C7.6646875 6.59132813 6.829375 6.05765625 5.96875 5.5078125 C4.99421875 4.76144531 4.99421875 4.76144531 4 4 C4 3.34 4 2.68 4 2 C2.68 1.67 1.36 1.34 0 1 C0 0.67 0 0.34 0 0 Z " fill="#153BE3" transform="translate(240,250)"/>
<path d="M0 0 C4.56454251 0.54339792 7.9728176 1.79463821 12 4 C12 4.66 12 5.32 12 6 C12.66 6 13.32 6 14 6 C14 6.66 14 7.32 14 8 C14.66 8.33 15.32 8.66 16 9 C14.68 9 13.36 9 12 9 C12 8.34 12 7.68 12 7 C11.13375 6.7525 10.2675 6.505 9.375 6.25 C5.80481983 4.92771105 3.05577189 3.25545068 0 1 C0 0.67 0 0.34 0 0 Z " fill="#051EB9" transform="translate(234,277)"/>
<path d="M0 0 C5.28 0 10.56 0 16 0 C16 0.66 16 1.32 16 2 C15.41992188 2.06058594 14.83984375 2.12117187 14.2421875 2.18359375 C9.79907137 2.66016561 5.40094577 3.21008666 1 4 C0.67 2.68 0.34 1.36 0 0 Z " fill="#0B32EC" transform="translate(208,162)"/>
<path d="M0 0 C1.32 0 2.64 0 4 0 C4 0.66 4 1.32 4 2 C7.3 2 10.6 2 14 2 C14 3.32 14 4.64 14 6 C8.29290936 5.53411505 4.84060277 4.06242216 0 1 C0 0.67 0 0.34 0 0 Z " fill="#1237DD" transform="translate(274,122)"/>
<path d="M0 0 C1.2065625 0.0309375 1.2065625 0.0309375 2.4375 0.0625 C2.4375 0.7225 2.4375 1.3825 2.4375 2.0625 C1.19573305 2.76476141 -0.05635599 3.44879109 -1.3125 4.125 C-2.35664063 4.69927734 -2.35664063 4.69927734 -3.421875 5.28515625 C-5.92390628 6.1937406 -7.0957355 5.94586837 -9.5625 5.0625 C-9.5625 4.0725 -9.5625 3.0825 -9.5625 2.0625 C-8.593125 1.918125 -7.62375 1.77375 -6.625 1.625 C-3.51819849 1.05436299 -3.01883152 0.07363004 0 0 Z " fill="#0B32DD" transform="translate(359.5625,309.9375)"/>
<path d="M0 0 C0.99 0 1.98 0 3 0 C3 2.64 3 5.28 3 8 C2.34 8 1.68 8 1 8 C1 9.98 1 11.96 1 14 C0.34 14 -0.32 14 -1 14 C-1.33 14.66 -1.66 15.32 -2 16 C-1.48826065 12.92956387 -0.97400167 9.86740854 -0.375 6.8125 C0.21919997 3.92620775 0.21919997 3.92620775 -1 1 C-0.67 0.67 -0.34 0.34 0 0 Z " fill="#1A37D3" transform="translate(333,210)"/>
<path d="M0 0 C1.76462683 3.08809695 2 4.23312136 2 8 C2.66 8 3.32 8 4 8 C4.33 9.32 4.66 10.64 5 12 C5.66 12 6.32 12 7 12 C6.67 13.98 6.34 15.96 6 18 C2.0225484 13.64374349 0.16823779 7.74788396 -0.1875 1.9375 C-0.125625 1.298125 -0.06375 0.65875 0 0 Z " fill="#0829C7" transform="translate(51,84)"/>
<path d="M0 0 C0.33 0 0.66 0 1 0 C0.54996653 5.62541841 -0.68441485 8.61487125 -4 13 C-4.99 12.67 -5.98 12.34 -7 12 C-6.67 10.68 -6.34 9.36 -6 8 C-5.34 8 -4.68 8 -4 8 C-4 7.34 -4 6.68 -4 6 C-3.34 6 -2.68 6 -2 6 C-1.34 4.02 -0.68 2.04 0 0 Z " fill="#0725B2" transform="translate(124,396)"/>
<path d="M0 0 C0.66 0 1.32 0 2 0 C2 1.32 2 2.64 2 4 C1.34 4 0.68 4 0 4 C0 4.66 0 5.32 0 6 C-1.98 6 -3.96 6 -6 6 C-6 6.66 -6 7.32 -6 8 C-6.99 7.67 -7.98 7.34 -9 7 C-7.625 5.5 -7.625 5.5 -6 4 C-5.34 4 -4.68 4 -4 4 C-4 3.34 -4 2.68 -4 2 C-2.68 2 -1.36 2 0 2 C0 1.34 0 0.68 0 0 Z " fill="#0D34E3" transform="translate(78,264)"/>
<path d="M0 0 C8.39004715 -0.13605482 16.64380043 0.24524649 25 1 C25 1.33 25 1.66 25 2 C15.595 2.495 15.595 2.495 6 3 C6 2.34 6 1.68 6 1 C4.02 1 2.04 1 0 1 C0 0.67 0 0.34 0 0 Z " fill="#0012B3" transform="translate(313,137)"/>
<path d="M0 0 C1.98 0 3.96 0 6 0 C6 0.66 6 1.32 6 2 C5.34 2 4.68 2 4 2 C4 2.66 4 3.32 4 4 C0.7 4 -2.6 4 -6 4 C-6 3.34 -6 2.68 -6 2 C-4.02 2 -2.04 2 0 2 C0 1.34 0 0.68 0 0 Z " fill="#113DE8" transform="translate(234,156)"/>
<path d="M0 0 C0.66 0 1.32 0 2 0 C1.66739811 1.33351598 1.33386052 2.66679858 1 4 C0.69642578 5.25876953 0.69642578 5.25876953 0.38671875 6.54296875 C0.15597656 7.41566406 -0.07476562 8.28835938 -0.3125 9.1875 C-0.53550781 10.06792969 -0.75851562 10.94835937 -0.98828125 11.85546875 C-2 14 -2 14 -4.10546875 14.80078125 C-5.04326172 14.89939453 -5.04326172 14.89939453 -6 15 C-6 14.01 -6 13.02 -6 12 C-5.34 12 -4.68 12 -4 12 C-4 11.34 -4 10.68 -4 10 C-3.34 10 -2.68 10 -2 10 C-2.04125 9.0925 -2.0825 8.185 -2.125 7.25 C-2.00468444 4.1217954 -1.6085292 2.61385994 0 0 Z " fill="#0F30C3" transform="translate(400,266)"/>
<path d="M0 0 C1.98362069 2.91708924 1.9876191 4.12380904 1.625 7.75 C1.41875 8.8225 1.2125 9.895 1 11 C0.34 11 -0.32 11 -1 11 C-1.33 13.64 -1.66 16.28 -2 19 C-2.33 19 -2.66 19 -3 19 C-2.54240047 12.4491015 -1.7899856 6.3246158 0 0 Z " fill="#021DB3" transform="translate(415,224)"/>
<path d="M0 0 C1.32 0.99 2.64 1.98 4 3 C0.04 3 -3.92 3 -8 3 C-8 2.34 -8 1.68 -8 1 C-4.93439522 -0.86126005 -3.36630375 -1.3675609 0 0 Z " fill="#193ADA" transform="translate(264,145)"/>
<path d="M0 0 C4.76350585 0.71452588 9.34201396 1.79534844 14 3 C10.77557555 4.97007169 8.97573869 5.16624654 5.3125 4.3125 C4.52488281 4.14363281 3.73726563 3.97476563 2.92578125 3.80078125 C2.29027344 3.53652344 1.65476562 3.27226562 1 3 C0.67 2.01 0.34 1.02 0 0 Z " fill="#031EBD" transform="translate(92,134)"/>
<path d="M0 0 C1.29608947 0.93137592 2.58671632 1.8703566 3.875 2.8125 C4.59429687 3.33457031 5.31359375 3.85664062 6.0546875 4.39453125 C8 6 8 6 10 9 C6.51072308 8.68279301 4.44149146 8.33692769 1.625 6.1875 C0 4 0 4 0 0 Z " fill="#0C2EBC" transform="translate(370,92)"/>
<path d="M0 0 C0.33 0 0.66 0 1 0 C2.13112344 5.02721527 1.93493027 8.98537403 1 14 C0.01 14.495 0.01 14.495 -1 15 C-1.02685412 12.68756208 -1.04632841 10.3750373 -1.0625 8.0625 C-1.07410156 6.77472656 -1.08570313 5.48695313 -1.09765625 4.16015625 C-1 1 -1 1 0 0 Z " fill="#072BBA" transform="translate(417,213)"/>
<path d="M0 0 C0.66 0.33 1.32 0.66 2 1 C0.515 7.435 0.515 7.435 -1 14 C-1.33 14 -1.66 14 -2 14 C-2.05437607 12.41705218 -2.09296271 10.83355744 -2.125 9.25 C-2.14820313 8.36828125 -2.17140625 7.4865625 -2.1953125 6.578125 C-1.99139502 3.8864142 -1.36551721 2.30095026 0 0 Z " fill="#1538DE" transform="translate(312,192)"/>
<path d="M0 0 C0.66 0 1.32 0 2 0 C2 0.66 2 1.32 2 2 C2.66 2 3.32 2 4 2 C3.34 3.32 2.68 4.64 2 6 C1.34 6 0.68 6 0 6 C0 5.34 0 4.68 0 4 C-1.32 4 -2.64 4 -4 4 C-4 3.34 -4 2.68 -4 2 C-2.68 2 -1.36 2 0 2 C0 1.34 0 0.68 0 0 Z " fill="#0933EB" transform="translate(218,266)"/>
<path d="M0 0 C0 3 0 3 -1 6 C-2.62332967 7.38576923 -4.28724465 8.72641268 -6 10 C-5.58578031 5.16743695 -3.53586014 3.17320782 0 0 Z " fill="#041EB6" transform="translate(319,244)"/>
<path d="M0 0 C0.66 0.66 1.32 1.32 2 2 C1.67 2.99 1.34 3.98 1 5 C0.34 4.67 -0.32 4.34 -1 4 C-3.71262116 3.7677354 -6.40773126 3.58063765 -9.125 3.4375 C-9.87910156 3.39431641 -10.63320312 3.35113281 -11.41015625 3.30664062 C-13.27321888 3.2005168 -15.13658524 3.09974999 -17 3 C-17 2.67 -17 2.34 -17 2 C-11.39 2 -5.78 2 0 2 C0 1.34 0 0.68 0 0 Z " fill="#00159E" transform="translate(195,230)"/>
<path d="M0 0 C4.13333333 6.2 4.13333333 6.2 3.625 9.25 C3.41875 9.8275 3.2125 10.405 3 11 C2.67 10.01 2.34 9.02 2 8 C1.01 8.33 0.02 8.66 -1 9 C-0.67 6.03 -0.34 3.06 0 0 Z " fill="#0D31CC" transform="translate(409,145)"/>
<path d="M0 0 C1.98 0 3.96 0 6 0 C6 0.66 6 1.32 6 2 C1.64705882 6 1.64705882 6 -2 6 C-2 5.34 -2 4.68 -2 4 C-1.34 4 -0.68 4 0 4 C0 2.68 0 1.36 0 0 Z " fill="#0F30DB" transform="translate(102,418)"/>
<path d="M0 0 C1.32 0.33 2.64 0.66 4 1 C3.25 3.4375 3.25 3.4375 2 6 C0 6.875 0 6.875 -2 7 C-2.66 6.67 -3.32 6.34 -4 6 C-4 5.34 -4 4.68 -4 4 C-2.68 4 -1.36 4 0 4 C0 2.68 0 1.36 0 0 Z " fill="#0C2CCD" transform="translate(276,252)"/>
<path d="M0 0 C-2.61941217 1.74627478 -4.03824877 2.38722388 -7 3 C-7 3.66 -7 4.32 -7 5 C-8.32 5 -9.64 5 -11 5 C-10 2 -10 2 -8.3125 0.8125 C-5.45030907 -0.19313465 -3.01172092 -0.13689641 0 0 Z " fill="#0627B3" transform="translate(263,143)"/>
<path d="M0 0 C1.32 0 2.64 0 4 0 C4 1.98 4 3.96 4 6 C4.66 6 5.32 6 6 6 C5.67 6.66 5.34 7.32 5 8 C3.35 7.01 1.7 6.02 0 5 C0.33 4.01 0.66 3.02 1 2 C0.67 1.34 0.34 0.68 0 0 Z " fill="#1836CA" transform="translate(62,108)"/>
<path d="M0 0 C4.75 0.75 4.75 0.75 7 3 C6.67 3.33 6.34 3.66 6 4 C6.66 4.66 7.32 5.32 8 6 C6.02 6 4.04 6 2 6 C2 4.35 2 2.7 2 1 C1.34 0.67 0.68 0.34 0 0 Z " fill="#1439CA" transform="translate(248,284)"/>
<path d="M0 0 C2.64 0 5.28 0 8 0 C8 0.66 8 1.32 8 2 C8.66 2 9.32 2 10 2 C10 2.66 10 3.32 10 4 C5.78087253 3.5205537 3.20336822 2.83374881 0 0 Z " fill="#143AE1" transform="translate(86,130)"/>
<path d="M0 0 C0 0.66 0 1.32 0 2 C1.32 2 2.64 2 4 2 C4 2.66 4 3.32 4 4 C1.75 4.75 1.75 4.75 -1 5 C-3.3125 3.0625 -3.3125 3.0625 -5 1 C-3 0 -3 0 0 0 Z " fill="#0E29C7" transform="translate(270,118)"/>
<path d="M0 0 C2.33524782 2.25740623 4.18705073 4.2805761 6 7 C6 7.99 6 8.98 6 10 C5.34 10 4.68 10 4 10 C4 9.34 4 8.68 4 8 C3.34 8 2.68 8 2 8 C2 6.68 2 5.36 2 4 C1.34 4 0.68 4 0 4 C0 2.68 0 1.36 0 0 Z " fill="#1538DB" transform="translate(388,112)"/>
<path d="M0 0 C1.32 0.33 2.64 0.66 4 1 C4 1.66 4 2.32 4 3 C5.32 3.66 6.64 4.32 8 5 C8 5.66 8 6.32 8 7 C7.01 7 6.02 7 5 7 C5 6.34 5 5.68 5 5 C4.01 5 3.02 5 2 5 C2 4.01 2 3.02 2 2 C1.34 2 0.68 2 0 2 C0 1.34 0 0.68 0 0 Z " fill="#193FE0" transform="translate(366,93)"/>
<path d="M0 0 C1.32 0 2.64 0 4 0 C4 0.66 4 1.32 4 2 C4.99 2.33 5.98 2.66 7 3 C4.69 3.66 2.38 4.32 0 5 C0 3.35 0 1.7 0 0 Z " fill="#0831F1" transform="translate(54,432)"/>
<path d="M0 0 C0.66 0 1.32 0 2 0 C1.375 2.4375 1.375 2.4375 0 5 C-3.125 5.8125 -3.125 5.8125 -6 6 C-6 5.34 -6 4.68 -6 4 C-3 2 -3 2 0 2 C0 1.34 0 0.68 0 0 Z " fill="#1237E7" transform="translate(280,282)"/>
<path d="M0 0 C1.32 0 2.64 0 4 0 C4 2.64 4 5.28 4 8 C3.34 7.67 2.68 7.34 2 7 C2 6.01 2 5.02 2 4 C1.34 4 0.68 4 0 4 C0 2.68 0 1.36 0 0 Z " fill="#0D31DF" transform="translate(218,220)"/>
<path d="M0 0 C0.33 0 0.66 0 1 0 C1 3.3 1 6.6 1 10 C0.01 10.33 -0.98 10.66 -2 11 C-1 3.57142857 -1 3.57142857 0 0 Z " fill="#0727B8" transform="translate(312,200)"/>
<path d="M0 0 C2.31 0 4.62 0 7 0 C4.73030256 2.26969744 3.02604513 2.99131829 0 4 C-1.32 4 -2.64 4 -4 4 C-4 3.34 -4 2.68 -4 2 C-2.68 2 -1.36 2 0 2 C0 1.34 0 0.68 0 0 Z " fill="#1739D7" transform="translate(230,128)"/>
<path d="M0 0 C0 1.65 0 3.3 0 5 C-0.66 5 -1.32 5 -2 5 C-2.33 5.99 -2.66 6.98 -3 8 C-3.33 8 -3.66 8 -4 8 C-4 5.69 -4 3.38 -4 1 C-1 0 -1 0 0 0 Z " fill="#153BE0" transform="translate(112,411)"/>
<path d="M0 0 C1.32 2.31 2.64 4.62 4 7 C0.08597051 5.73058503 -1.79072873 4.48832306 -4 1 C-2 0 -2 0 0 0 Z " fill="#0C2BC3" transform="translate(244,252)"/>
<path d="M0 0 C0.33 1.32 0.66 2.64 1 4 C0.34 4 -0.32 4 -1 4 C-1.33 5.65 -1.66 7.3 -2 9 C-2.99 8.34 -3.98 7.68 -5 7 C-3.35 4.69 -1.7 2.38 0 0 Z " fill="#1438DA" transform="translate(323,240)"/>
<path d="M0 0 C0.66 0 1.32 0 2 0 C2 1.98 2 3.96 2 6 C0.68 6 -0.64 6 -2 6 C-1.125 1.125 -1.125 1.125 0 0 Z " fill="#0F36E0" transform="translate(316,250)"/>
<path d="M0 0 C2.95183101 2.95183101 3.08663988 5.95511947 4 10 C3.34 10 2.68 10 2 10 C2 9.34 2 8.68 2 8 C1.34 8 0.68 8 0 8 C0 5.36 0 2.72 0 0 Z " fill="#1539DA" transform="translate(404,138)"/>
<path d="M0 0 C2.64 0 5.28 0 8 0 C8 0.66 8 1.32 8 2 C6.02 2 4.04 2 2 2 C2 2.66 2 3.32 2 4 C1.34 4 0.68 4 0 4 C0 2.68 0 1.36 0 0 Z " fill="#113AEC" transform="translate(218,130)"/>
<path d="M0 0 C0.99 0 1.98 0 3 0 C3 0.66 3 1.32 3 2 C2.34 2 1.68 2 1 2 C0.71125 2.804375 0.4225 3.60875 0.125 4.4375 C-1 7 -1 7 -3 8 C-2.45276317 4.62537285 -1.9451 2.91765 0 0 Z " fill="#081EC5" transform="translate(116,409)"/>
<path d="M0 0 C-1.12451727 2.9719385 -2.22293791 5.33440687 -4 8 C-4.33 5.69 -4.66 3.38 -5 1 C-2 0 -2 0 0 0 Z " fill="#152ECD" transform="translate(129,391)"/>
<path d="M0 0 C0.66 1.32 1.32 2.64 2 4 C2.66 4 3.32 4 4 4 C3.67 5.32 3.34 6.64 3 8 C3 7.34 3 6.68 3 6 C2.01 6 1.02 6 0 6 C-0.38218767 4.34385343 -0.71395102 2.67542976 -1 1 C-0.67 0.67 -0.34 0.34 0 0 Z " fill="#0E2BBF" transform="translate(214,214)"/>
<path d="M0 0 C1.98 0 3.96 0 6 0 C6 0.66 6 1.32 6 2 C3 4 3 4 0 4 C0 2.68 0 1.36 0 0 Z " fill="#0B34E6" transform="translate(236,124)"/>
<path d="M0 0 C0.66 0.33 1.32 0.66 2 1 C0.25 3 0.25 3 -2 5 C-3.32 5 -4.64 5 -6 5 C-6 4.34 -6 3.68 -6 3 C-4.03533587 1.93224776 -2.03144641 0.93446535 0 0 Z " fill="#031BB4" transform="translate(252,120)"/>
<path d="M0 0 C0.99 0.66 1.98 1.32 3 2 C3 2.66 3 3.32 3 4 C1.02 4.66 -0.96 5.32 -3 6 C-2 4 -1 2 0 0 Z " fill="#0E35E9" transform="translate(365,304)"/>
<path d="M0 0 C0.33 0 0.66 0 1 0 C1 2.64 1 5.28 1 8 C-0.32 8 -1.64 8 -3 8 C-3 7.34 -3 6.68 -3 6 C-2.34 6 -1.68 6 -1 6 C-0.67 4.02 -0.34 2.04 0 0 Z " fill="#1236DF" transform="translate(61,280)"/>
<path d="M0 0 C0.66 0 1.32 0 2 0 C2 0.66 2 1.32 2 2 C2.66 2 3.32 2 4 2 C4.33 2.99 4.66 3.98 5 5 C3.0625 5.5625 3.0625 5.5625 1 6 C0 5 0 5 -0.0625 2.4375 C-0.041875 1.633125 -0.02125 0.82875 0 0 Z " fill="#153DF9" transform="translate(226,274)"/>
<path d="M0 0 C0.66 0 1.32 0 2 0 C2 0.66 2 1.32 2 2 C2.66 2 3.32 2 4 2 C4 2.66 4 3.32 4 4 C4.66 4 5.32 4 6 4 C5.67 5.32 5.34 6.64 5 8 C0 2.25 0 2.25 0 0 Z " fill="#1C3BD6" transform="translate(224,232)"/>
<path d="M0 0 C0.66 0 1.32 0 2 0 C0.55746343 3.36591866 -1.33264727 5.51047079 -4 8 C-4 6.68 -4 5.36 -4 4 C-3.34 4 -2.68 4 -2 4 C-2 3.34 -2 2.68 -2 2 C-1.34 2 -0.68 2 0 2 C0 1.34 0 0.68 0 0 Z " fill="#1838D5" transform="translate(298,230)"/>
<path d="M0 0 C1.32 0 2.64 0 4 0 C4 1.98 4 3.96 4 6 C3.34 6 2.68 6 2 6 C1.34 4.02 0.68 2.04 0 0 Z " fill="#173CE5" transform="translate(214,212)"/>
<path d="M0 0 C5.75 -0.125 5.75 -0.125 8 1 C8 1.66 8 2.32 8 3 C8.66 3.33 9.32 3.66 10 4 C5.78087253 3.5205537 3.20336822 2.83374881 0 0 Z " fill="#0520BE" transform="translate(276,151)"/>
<path d="M0 0 C0.99 0.33 1.98 0.66 3 1 C3.73046875 3.06640625 3.73046875 3.06640625 4.1875 5.5625 C4.34605469 6.38878906 4.50460937 7.21507812 4.66796875 8.06640625 C4.77753906 8.70449219 4.88710938 9.34257812 5 10 C2.35534962 6.8745041 1.15585285 3.91211733 0 0 Z " fill="#0120B1" transform="translate(401,130)"/>
<path d="M0 0 C1.98 0 3.96 0 6 0 C6 1.32 6 2.64 6 4 C4.125 3.6875 4.125 3.6875 2 3 C1.34 2.01 0.68 1.02 0 0 Z " fill="#1237E3" transform="translate(70,118)"/>
<path d="M0 0 C1.32 0 2.64 0 4 0 C4 1.98 4 3.96 4 6 C3.34 6 2.68 6 2 6 C1.34 4.02 0.68 2.04 0 0 Z " fill="#1236DE" transform="translate(54,90)"/>
<path d="M0 0 C0.66 0.33 1.32 0.66 2 1 C2 1.66 2 2.32 2 3 C0.02 3.66 -1.96 4.32 -4 5 C-4 4.01 -4 3.02 -4 2 C-2.125 0.9375 -2.125 0.9375 0 0 Z " fill="#0525B1" transform="translate(366,308)"/>
<path d="M0 0 C0.33 0.99 0.66 1.98 1 3 C0.34 3 -0.32 3 -1 3 C-0.67 3.99 -0.34 4.98 0 6 C-1.65 6.33 -3.3 6.66 -5 7 C-1.125 1.125 -1.125 1.125 0 0 Z " fill="#1A3CD8" transform="translate(67,273)"/>
<path d="M0 0 C0.33 1.32 0.66 2.64 1 4 C-0.32 4 -1.64 4 -3 4 C-3 4.66 -3 5.32 -3 6 C-4.32 5.67 -5.64 5.34 -7 5 C-4.69 3.35 -2.38 1.7 0 0 Z " fill="#173AD7" transform="translate(295,272)"/>
<path d="M0 0 C0.99 0.495 0.99 0.495 2 1 C2 1.66 2 2.32 2 3 C2.66 3 3.32 3 4 3 C4 3.66 4 4.32 4 5 C3.34 5 2.68 5 2 5 C2 5.66 2 6.32 2 7 C1.34 7 0.68 7 0 7 C0 4.69 0 2.38 0 0 Z " fill="#0D37E9" transform="translate(394,271)"/>
<path d="M0 0 C0.99 0.33 1.98 0.66 3 1 C2.67 2.65 2.34 4.3 2 6 C0.68 6 -0.64 6 -2 6 C-2 5.34 -2 4.68 -2 4 C-1.34 4 -0.68 4 0 4 C0 2.68 0 1.36 0 0 Z " fill="#1239F1" transform="translate(68,272)"/>
<path d="M0 0 C2.64 0 5.28 0 8 0 C4.55549263 2.29633824 2.06187717 2.54016485 -2 3 C-1.34 2.67 -0.68 2.34 0 2 C0 1.34 0 0.68 0 0 Z " fill="#0520B9" transform="translate(87,257)"/>
<path d="M0 0 C0.99 0.495 0.99 0.495 2 1 C2 2.32 2 3.64 2 5 C2.66 5 3.32 5 4 5 C4 5.66 4 6.32 4 7 C2.68 7 1.36 7 0 7 C0 4.69 0 2.38 0 0 Z " fill="#0E36DF" transform="translate(398,127)"/>
</svg>
