<svg xmlns="http://www.w3.org/2000/svg" viewBox="0 0 249.54 62.33"><defs><style>.cls-1{fill:#0129fa;}.cls-2,.cls-3{fill:#000;}.cls-3{isolation:isolate;font-size:8.63px;font-family:Corbel-Bold, Corbel;font-weight:700;}</style></defs><title>Asset 1</title><g id="Layer_2" data-name="Layer 2"><g id="Layer_1-2" data-name="Layer 1"><path class="cls-1" d="M59.51,40.69v7.84a16.06,16.06,0,0,1-1.62,4.14,19.4,19.4,0,0,1-14.83,9.66H0V43.63a8.14,8.14,0,0,1,2.09-5.4,10.08,10.08,0,0,1,7.6-3.31,10.51,10.51,0,0,1,4.38.94,9.36,9.36,0,0,1,3.21,2.37,8.12,8.12,0,0,1,2.09,5.4,8,8,0,0,1-1.43,4.55,9.46,9.46,0,0,1-4.06,3.3,26.71,26.71,0,0,0,5.25.52c.59,0,1.17,0,1.76-.06s1.43-.13,2.13-.23A25.68,25.68,0,0,0,42.08,38.23a24.39,24.39,0,0,0,2.74-10.82A18.64,18.64,0,0,1,58.69,38.23,14.79,14.79,0,0,1,59.51,40.69Z"/><path class="cls-1" d="M0,21.64V13.8A16.06,16.06,0,0,1,1.62,9.66,19.4,19.4,0,0,1,16.45,0H59.51V18.7a8.14,8.14,0,0,1-2.09,5.4,10.08,10.08,0,0,1-7.6,3.31,10.51,10.51,0,0,1-4.38-.94,9.36,9.36,0,0,1-3.21-2.37,8.12,8.12,0,0,1-2.09-5.4,8,8,0,0,1,1.43-4.55,9.46,9.46,0,0,1,4.06-3.3,26.71,26.71,0,0,0-5.25-.52c-.59,0-1.17,0-1.76.06s-1.43.13-2.13.23A25.68,25.68,0,0,0,17.43,24.1a24.39,24.39,0,0,0-2.74,10.82A18.64,18.64,0,0,1,.82,24.1,16.13,16.13,0,0,1,0,21.64Z"/><path class="cls-2" d="M68.31,41.09V39.66H94.87a2.22,2.22,0,0,0,2.35-2.4,2.27,2.27,0,0,0-2.35-2.46H79.24c-6.61,0-11.37-4.37-11.37-10.71s4.75-10.76,11.37-10.76H97.11a9.12,9.12,0,0,1,9.12,9.12H79.67a2.13,2.13,0,0,0-2.29,2.35,2.2,2.2,0,0,0,2.29,2.4H95.3c6.67,0,11.42,4.43,11.42,10.76,0,6.56-4.75,10.87-11.42,10.87H76.06A7.73,7.73,0,0,1,68.31,41.09Z"/><path class="cls-2" d="M111.15,48.92V13.4h9.56V48.92Z"/><path class="cls-2" d="M154.49,48.92l-7.1-9H139V31.59h12.24a4.29,4.29,0,0,0,4.48-4.54,4.29,4.29,0,0,0-4.48-4.54h-15V48.9h-9.51V13.38h24.48c8.14,0,14,5.35,14,13.28A12.68,12.68,0,0,1,158,38.46l9,10.44H154.49Z"/><path class="cls-2" d="M170.28,48.92V13.4h29.53A4.56,4.56,0,0,1,204.37,18h0a4.56,4.56,0,0,1-4.56,4.56h-20V39.73h20a4.59,4.59,0,0,1,4.59,4.59h0a4.59,4.59,0,0,1-4.59,4.59H170.28ZM183,27.28H200.2a3.8,3.8,0,0,1,3.8,3.8h0a3.8,3.8,0,0,1-3.8,3.8h-9.59A7.6,7.6,0,0,1,183,27.28Z"/><path class="cls-2" d="M243.07,48.92c-2.57,0-3.61-.93-5.46-3L219.3,26.14V48.93H210V17.46c0-2.68,1.48-4,4.43-4h2.29A6.57,6.57,0,0,1,222.52,16l16.77,18.09V13.42h9.23V45.28c0,2.4-1.2,3.66-3.55,3.66h-1.9Z"/><text class="cls-3" transform="translate(68.87 57.5) scale(0.96 1)">Situation Intelligence &amp; Rapid Emergency Network</text></g></g></svg>